<?xml version="1.0" encoding="utf-8"?>
<!-- Generator: Adobe Illustrator 25.2.1, SVG Export Plug-In . SVG Version: 6.00 Build 0)  -->
<svg version="1.1"
	 id="logo1" sodipodi:docname="dots.svg" xmlns:inkscape="http://www.inkscape.org/namespaces/inkscape" xmlns:sodipodi="http://sodipodi.sourceforge.net/DTD/sodipodi-0.dtd" xmlns:svg="http://www.w3.org/2000/svg"
	 xmlns="http://www.w3.org/2000/svg" xmlns:xlink="http://www.w3.org/1999/xlink" x="0px" y="0px" viewBox="0 0 112 20"
	 style="enable-background:new 0 0 112 20;" xml:space="preserve">
<style type="text/css">
	.st0{fill:url(#rect6_1_);}
	.st1{fill:url(#rect8_1_);}
	.st2{fill:url(#rect10_1_);}
</style>
<sodipodi:namedview  bordercolor="#999999" borderopacity="1" id="namedview13" inkscape:current-layer="logo1" inkscape:cx="7.7171783" inkscape:cy="-22.392468" inkscape:pagecheckerboard="0" inkscape:pageopacity="0" inkscape:pageshadow="0" inkscape:window-height="1001" inkscape:window-maximized="1" inkscape:window-width="1920" inkscape:window-x="-9" inkscape:window-y="-9" inkscape:zoom="3.9522217" pagecolor="#ffffff" showgrid="false">
	</sodipodi:namedview>
<linearGradient id="rect6_1_" gradientUnits="userSpaceOnUse" x1="-19.8584" y1="16.2428" x2="90.9109" y2="-6.1748">
	<stop  offset="0" style="stop-color:#386555"/>
	<stop  offset="1" style="stop-color:#63A489"/>
</linearGradient>
<path id="rect6" class="st0" d="M5.7,0.4h8.6C17.4,0.4,20,2.9,20,6v8.4c0,3.1-2.6,5.6-5.7,5.6H5.7C2.6,20,0,17.5,0,14.4V6
	C0,2.9,2.6,0.4,5.7,0.4z"/>
<linearGradient id="rect8_1_" gradientUnits="userSpaceOnUse" x1="-18.0582" y1="25.138" x2="92.7111" y2="2.7204">
	<stop  offset="0" style="stop-color:#386555"/>
	<stop  offset="1" style="stop-color:#63A489"/>
</linearGradient>
<path id="rect8" class="st1" d="M52.7,0.4h6.7C63,0.4,66,3.3,66,6.9v6.5c0,3.6-3,6.5-6.7,6.5h-6.7C49,20,46,17.1,46,13.5V6.9
	C46,3.3,49,0.4,52.7,0.4z"/>
<linearGradient id="rect10_1_" gradientUnits="userSpaceOnUse" x1="-16.2288" y1="34.1773" x2="94.5405" y2="11.7597">
	<stop  offset="0" style="stop-color:#386555"/>
	<stop  offset="1" style="stop-color:#63A489"/>
</linearGradient>
<path id="rect10" class="st2" d="M98.4,0.4h7.2c3.5,0,6.4,2.8,6.4,6.3v7.1c0,3.5-2.9,6.3-6.4,6.3h-7.2c-3.5,0-6.4-2.8-6.4-6.3V6.7
	C92,3.2,94.9,0.4,98.4,0.4z"/>
</svg>
