<svg id="Layer_1" data-name="Layer 1" xmlns="http://www.w3.org/2000/svg" xmlns:xlink="http://www.w3.org/1999/xlink" viewBox="0 0 1196 541"><defs><style>.cls-1{font-size:48px;font-family:Dosis-Regular, Dosis;}.cls-1,.cls-23{fill:#fff;}.cls-2{letter-spacing:-0.02em;}.cls-3{letter-spacing:-0.01em;}.cls-4{letter-spacing:-0.01em;}.cls-5{letter-spacing:-0.05em;}.cls-6{letter-spacing:-0.01em;}.cls-7{letter-spacing:0em;}.cls-8{letter-spacing:0em;}.cls-9{letter-spacing:-0.02em;}.cls-10{letter-spacing:0em;}.cls-11{letter-spacing:-0.01em;}.cls-12{letter-spacing:-0.01em;}.cls-13{letter-spacing:-0.04em;}.cls-14{letter-spacing:0em;}.cls-15{letter-spacing:0em;}.cls-16{letter-spacing:-0.05em;}.cls-17{fill:url(#linear-gradient);}.cls-18{fill:url(#linear-gradient-2);}.cls-19{fill:url(#linear-gradient-3);}.cls-20{fill:url(#linear-gradient-4);}.cls-21{fill:url(#linear-gradient-5);}.cls-22{fill:url(#linear-gradient-6);}</style><linearGradient id="linear-gradient" x1="346.44" y1="417.29" x2="1216.76" y2="281.2" gradientUnits="userSpaceOnUse"><stop offset="0" stop-color="#284e42"/><stop offset="1" stop-color="#88d9b4"/></linearGradient><linearGradient id="linear-gradient-2" x1="353.7" y1="463.75" x2="1224.03" y2="327.67" xlink:href="#linear-gradient"/><linearGradient id="linear-gradient-3" x1="350.66" y1="444.29" x2="1220.99" y2="308.2" xlink:href="#linear-gradient"/><linearGradient id="linear-gradient-4" x1="351.88" y1="452.08" x2="1222.21" y2="315.99" xlink:href="#linear-gradient"/><linearGradient id="linear-gradient-5" x1="358.53" y1="494.63" x2="1228.86" y2="358.54" xlink:href="#linear-gradient"/><linearGradient id="linear-gradient-6" x1="356" y1="478.48" x2="1226.33" y2="342.4" xlink:href="#linear-gradient"/></defs><rect x="0.5" y="0.5" width="1180" height="540"/><path d="M1568,269V808H389V269H1568m1-1H388V809H1569V268Z" transform="translate(-388 -268)"/><text class="cls-1" transform="translate(290.3 319.62)">Thanks <tspan class="cls-2" x="141.41" y="0">f</tspan><tspan x="155.18" y="0">or a</tspan><tspan class="cls-3" x="224.16" y="0">c</tspan><tspan x="243.64" y="0">essing </tspan><tspan class="cls-4" x="366.95" y="0">m</tspan><tspan x="404.01" y="0">y </tspan><tspan class="cls-5" x="433.77" y="0">W</tspan><tspan x="469.1" y="0">ebsi</tspan><tspan class="cls-6" x="541.96" y="0">t</tspan><tspan x="555.69" y="0">e.</tspan><tspan class="cls-7" x="0" y="115.2">H</tspan><tspan class="cls-8" x="27.31" y="115.2">e</tspan><tspan class="cls-9" x="49.3" y="115.2">r</tspan><tspan class="cls-10" x="64.13" y="115.2">e I want </tspan><tspan class="cls-6" x="216.24" y="115.2">t</tspan><tspan x="229.96" y="115.2">o sha</tspan><tspan class="cls-9" x="325.44" y="115.2">r</tspan><tspan x="340.27" y="115.2">e </tspan><tspan class="cls-11" x="371.85" y="115.2">m</tspan><tspan x="408.91" y="115.2">y </tspan><tspan class="cls-12" x="438.67" y="115.2">c</tspan><tspan x="458.15" y="115.2">on</tspan><tspan class="cls-6" x="504.38" y="115.2">t</tspan><tspan x="518.1" y="115.2">ent and try </tspan><tspan class="cls-6" x="724.88" y="115.2">t</tspan><tspan x="738.61" y="115.2">o help </tspan><tspan x="0" y="172.8">you with your journey as an R</tspan><tspan class="cls-13" x="532.21" y="172.8">P</tspan><tspan class="cls-14" x="555.54" y="172.8">A de</tspan><tspan class="cls-15" x="636.18" y="172.8">v</tspan><tspan x="656.29" y="172.8">elope</tspan><tspan class="cls-16" x="755.98" y="172.8">r</tspan><tspan x="769.66" y="172.8">.</tspan></text><path class="cls-17" d="M461.42,473.62a16.5,16.5,0,0,1-8-2,6.21,6.21,0,0,1-3.63-5.72V320.28a5.94,5.94,0,0,1,3.63-5.72,19.2,19.2,0,0,1,16.06,0,5.94,5.94,0,0,1,3.63,5.72V381h54.78V320.28a5.94,5.94,0,0,1,3.63-5.72,19.2,19.2,0,0,1,16.06,0,5.94,5.94,0,0,1,3.63,5.72V465.92a6.21,6.21,0,0,1-3.63,5.72,17.27,17.27,0,0,1-16.06,0,6.21,6.21,0,0,1-3.63-5.72V399.48H473.08v66.44a6.21,6.21,0,0,1-3.63,5.72A16.5,16.5,0,0,1,461.42,473.62Z" transform="translate(-388 -268)"/><path class="cls-18" d="M624.22,475.38q-15,0-26.4-5.5a44.36,44.36,0,0,1-18-15.29q-6.6-9.78-6.6-23V410.7a38.47,38.47,0,0,1,6.27-21.34,47,47,0,0,1,16.61-15.51A45.84,45.84,0,0,1,618.94,368a46.41,46.41,0,0,1,21.78,5.17,42,42,0,0,1,15.95,14.41,37.71,37.71,0,0,1,6.05,21.12q0,9.24-2.86,13.2a11.63,11.63,0,0,1-7.48,4.84,51.4,51.4,0,0,1-9.68.88H596.28v5.06q0,11,8,17.49t20.57,6.49q7.7,0,12.54-2.2a80.22,80.22,0,0,0,8.14-4.18,12.1,12.1,0,0,1,6.16-2,7,7,0,0,1,4.84,1.76,12.45,12.45,0,0,1,3.08,4.18,10.85,10.85,0,0,1,1.1,4.4q0,3.3-4.51,7.26t-12.65,6.71A60.81,60.81,0,0,1,624.22,475.38Zm-27.94-62H632.8q4.85,0,6.49-1.32t1.65-5.28a21,21,0,0,0-2.86-10.67,20.09,20.09,0,0,0-7.92-7.7,23.6,23.6,0,0,0-11.44-2.75,23.87,23.87,0,0,0-11.22,2.64,21.63,21.63,0,0,0-8.14,7.26,19,19,0,0,0-3.08,10.78Z" transform="translate(-388 -268)"/><path class="cls-19" d="M695.06,473.62a13.21,13.21,0,0,1-8.25-2.42q-3.19-2.42-3.19-5.28V314.78a6.24,6.24,0,0,1,3.19-5.39,14.8,14.8,0,0,1,8.25-2.09,15.56,15.56,0,0,1,8.25,2.09c2.27,1.4,3.41,3.19,3.41,5.39V465.92q0,2.86-3.41,5.28A13.87,13.87,0,0,1,695.06,473.62Z" transform="translate(-388 -268)"/><path class="cls-20" d="M746.1,473.62a13.21,13.21,0,0,1-8.25-2.42q-3.2-2.42-3.19-5.28V314.78a6.24,6.24,0,0,1,3.19-5.39,14.8,14.8,0,0,1,8.25-2.09,15.56,15.56,0,0,1,8.25,2.09c2.27,1.4,3.41,3.19,3.41,5.39V465.92q0,2.86-3.41,5.28A13.87,13.87,0,0,1,746.1,473.62Z" transform="translate(-388 -268)"/><path class="cls-21" d="M824.86,475.38a42.63,42.63,0,0,1-22.22-6.16A48.52,48.52,0,0,1,786,453.05a39.68,39.68,0,0,1-6.27-21.45V411.36a40.53,40.53,0,0,1,6-21.56A46,46,0,0,1,825.08,368a45.45,45.45,0,0,1,22.66,5.83,46.64,46.64,0,0,1,16.61,15.62,39.76,39.76,0,0,1,6.27,21.89V431.6a39.87,39.87,0,0,1-6.27,21.34,48,48,0,0,1-16.72,16.28A44,44,0,0,1,824.86,475.38Zm.22-20.46a20.14,20.14,0,0,0,11.22-3.3,25.06,25.06,0,0,0,8.14-8.69,22.53,22.53,0,0,0,3.08-11.33V411.36a21.57,21.57,0,0,0-3.08-11,25.43,25.43,0,0,0-8.14-8.58,20.14,20.14,0,0,0-11.22-3.3,19.94,19.94,0,0,0-11.33,3.3,24.71,24.71,0,0,0-7.92,8.58,22.14,22.14,0,0,0-3,11V431.6a23.14,23.14,0,0,0,3,11.33,24,24,0,0,0,8,8.69A20.09,20.09,0,0,0,825.08,454.92Z" transform="translate(-388 -268)"/><path class="cls-22" d="M902.3,474.94a12.44,12.44,0,0,1-9.46-4,13.42,13.42,0,0,1,0-18.59,12.64,12.64,0,0,1,9.46-3.85,12.51,12.51,0,0,1,9.13,3.85,13.15,13.15,0,0,1,0,18.59A12.31,12.31,0,0,1,902.3,474.94Zm-.22-42.68a11.31,11.31,0,0,1-6.27-1.76,5.83,5.83,0,0,1-2.75-5.28q0-16.05-.66-33.88t-1.32-35.75q-.66-17.93-.66-33.77a9.61,9.61,0,0,1,3.3-7.81,12.62,12.62,0,0,1,8.36-2.75,12.77,12.77,0,0,1,8.25,2.75,9.48,9.48,0,0,1,3.41,7.81q0,15.84-.66,33.77t-1.32,35.75q-.66,17.82-.66,33.88A5.71,5.71,0,0,1,908,430.5,12,12,0,0,1,902.08,432.26Z" transform="translate(-388 -268)"/><rect class="cls-23" x="291" y="333" width="587" height="4"/></svg>