<svg id="Layer_1" data-name="Layer 1" xmlns="http://www.w3.org/2000/svg" xmlns:xlink="http://www.w3.org/1999/xlink" viewBox="0 0 1181 572"><defs><style>.cls-1{font-size:48px;font-family:Dosis-Regular, Dosis;}.cls-1,.cls-18{fill:#fff;}.cls-2{letter-spacing:-0.01em;}.cls-3{letter-spacing:0em;}.cls-4{letter-spacing:-0.01em;}.cls-5{letter-spacing:-0.01em;}.cls-6{letter-spacing:-0.04em;}.cls-7{letter-spacing:-0.02em;}.cls-8{letter-spacing:-0.09em;}.cls-9{letter-spacing:0em;}.cls-10{letter-spacing:-0.02em;}.cls-11{letter-spacing:-0.01em;}.cls-12{letter-spacing:0em;}.cls-13{letter-spacing:-0.01em;}.cls-14{letter-spacing:-0.01em;}.cls-15{letter-spacing:0em;}.cls-16{letter-spacing:-0.02em;}.cls-17{letter-spacing:-0.01em;}.cls-19{fill:url(#linear-gradient);}.cls-20{fill:url(#linear-gradient-2);}.cls-21{fill:url(#linear-gradient-3);}.cls-22{fill:url(#linear-gradient-4);}.cls-23{fill:url(#linear-gradient-5);}.cls-24{fill:url(#linear-gradient-6);}.cls-25{fill:url(#linear-gradient-7);}.cls-26{fill:url(#linear-gradient-8);}.cls-27{fill:url(#linear-gradient-9);}</style><linearGradient id="linear-gradient" x1="992.02" y1="589.47" x2="1146.3" y2="343.8" gradientUnits="userSpaceOnUse"><stop offset="0" stop-color="#386555"/><stop offset="1" stop-color="#63a489"/></linearGradient><linearGradient id="linear-gradient-2" x1="1047.04" y1="624.03" x2="1201.33" y2="378.36" xlink:href="#linear-gradient"/><linearGradient id="linear-gradient-3" x1="1056.82" y1="630.16" x2="1211.1" y2="384.49" xlink:href="#linear-gradient"/><linearGradient id="linear-gradient-4" x1="1110.65" y1="663.97" x2="1264.94" y2="418.3" xlink:href="#linear-gradient"/><linearGradient id="linear-gradient-5" x1="1157.42" y1="693.34" x2="1311.71" y2="447.67" xlink:href="#linear-gradient"/><linearGradient id="linear-gradient-6" x1="1191.41" y1="714.69" x2="1345.7" y2="469.02" xlink:href="#linear-gradient"/><linearGradient id="linear-gradient-7" x1="1234.94" y1="742.03" x2="1389.22" y2="496.36" xlink:href="#linear-gradient"/><linearGradient id="linear-gradient-8" x1="1279.08" y1="769.75" x2="1433.37" y2="524.08" xlink:href="#linear-gradient"/><linearGradient id="linear-gradient-9" x1="1313.07" y1="791.1" x2="1467.36" y2="545.43" xlink:href="#linear-gradient"/></defs><rect x="0.5" y="0.5" width="1180" height="540"/><path d="M1568,269V808H389V269H1568m1-1H388V809H1569V268Z" transform="translate(-388 -268)"/><text class="cls-1" transform="translate(50.3 89.62)">I li<tspan class="cls-2" x="39.12" y="0">k</tspan><tspan class="cls-3" x="60.38" y="0">e </tspan><tspan class="cls-4" x="91.97" y="0">t</tspan><tspan x="105.69" y="0">o wri</tspan><tspan class="cls-4" x="194.69" y="0">t</tspan><tspan x="208.41" y="0">e </tspan><tspan class="cls-5" x="240" y="0">c</tspan><tspan x="259.48" y="0">on</tspan><tspan class="cls-4" x="305.71" y="0">t</tspan><tspan class="cls-3" x="319.44" y="0">ent about R</tspan><tspan class="cls-6" x="528.57" y="0">P</tspan><tspan x="551.9" y="0">A, </tspan><tspan x="0" y="57.6" xml:space="preserve">so  I  c</tspan><tspan class="cls-7" x="109.72" y="57.6">r</tspan><tspan x="124.56" y="57.6">ea</tspan><tspan class="cls-4" x="167.56" y="57.6">t</tspan><tspan x="181.29" y="57.6" xml:space="preserve">ed  R</tspan><tspan class="cls-6" x="271.05" y="57.6">P</tspan><tspan x="294.38" y="57.6" xml:space="preserve">A  </tspan><tspan class="cls-8" x="339.4" y="57.6">Y</tspan><tspan x="360.67" y="57.6">a</tspan><tspan class="cls-7" x="381.69" y="57.6">r</tspan><tspan x="396.52" y="57.6">d. </tspan><tspan class="cls-9" x="437.56" y="57.6">O</tspan><tspan x="463.91" y="57.6">f</tspan><tspan class="cls-10" x="478.55" y="57.6">f</tspan><tspan x="492.33" y="57.6">ering </tspan><tspan x="0" y="115.2">f</tspan><tspan class="cls-7" x="14.64" y="115.2">r</tspan><tspan x="29.47" y="115.2" xml:space="preserve">ee  </tspan><tspan class="cls-5" x="92.64" y="115.2">c</tspan><tspan x="112.12" y="115.2">on</tspan><tspan class="cls-11" x="158.35" y="115.2">t</tspan><tspan class="cls-12" x="172.08" y="115.2" xml:space="preserve">ent  and  alw</tspan><tspan class="cls-13" x="401.27" y="115.2">a</tspan><tspan x="421.96" y="115.2" xml:space="preserve">ys  trying </tspan><tspan class="cls-4" x="0" y="172.8">t</tspan><tspan x="13.73" y="172.8" xml:space="preserve">o  ma</tspan><tspan class="cls-14" x="113.85" y="172.8">k</tspan><tspan x="135.12" y="172.8" xml:space="preserve">e  short  and   descripti</tspan><tspan class="cls-15" x="542.05" y="172.8">v</tspan><tspan x="562.16" y="172.8">e </tspan><tspan x="0" y="230.4">s</tspan><tspan class="cls-4" x="18.58" y="230.4">t</tspan><tspan x="32.3" y="230.4" xml:space="preserve">ep  </tspan><tspan class="cls-15" x="96.72" y="230.4">b</tspan><tspan x="119.9" y="230.4" xml:space="preserve">y  s</tspan><tspan class="cls-4" x="177.84" y="230.4">t</tspan><tspan x="191.57" y="230.4" xml:space="preserve">ep  lessons  based  on </tspan><tspan class="cls-13" x="0" y="288">m</tspan><tspan x="37.06" y="288">y p</tspan><tspan class="cls-16" x="90.05" y="288">r</tspan><tspan x="104.88" y="288">o</tspan><tspan class="cls-10" x="127.39" y="288">f</tspan><tspan x="141.17" y="288">essional experien</tspan><tspan class="cls-17" x="453.64" y="288">c</tspan><tspan class="cls-12" x="473.13" y="288">e.</tspan></text><rect class="cls-18" x="213" y="477" width="402" height="4" transform="translate(505 -203) rotate(90)"/><path class="cls-19" d="M1102.85,413.61a9.74,9.74,0,0,1-4.74-1.17,3.68,3.68,0,0,1-2.15-3.38V325.47q0-3.9,2.15-5.4a8.15,8.15,0,0,1,4.74-1.49,11.83,11.83,0,0,1,4.29.71,9.17,9.17,0,0,1,3.38,2.41,25.3,25.3,0,0,1,3.25,4.68l18.2,34.45,18.46-34.45a28.13,28.13,0,0,1,3.19-4.68,8.72,8.72,0,0,1,3.31-2.41,11.9,11.9,0,0,1,4.29-.71,8.11,8.11,0,0,1,4.82,1.49c1.38,1,2.08,2.8,2.08,5.4v83.59a3.68,3.68,0,0,1-2.15,3.38,10.21,10.21,0,0,1-9.49,0,3.68,3.68,0,0,1-2.15-3.38v-62.4l-17.41,32.24a6.58,6.58,0,0,1-2.34,2.4,5.58,5.58,0,0,1-2.74.72,5.52,5.52,0,0,1-2.46-.65,5.17,5.17,0,0,1-2.21-2.47l-17.42-33v63.18a3.68,3.68,0,0,1-2.15,3.38A9.75,9.75,0,0,1,1102.85,413.61Z" transform="translate(-388 -268)"/><path class="cls-20" d="M1184.1,442.86a8.36,8.36,0,0,1-4.42-1.11c-1.21-.73-1.82-2.32-1.82-4.74a10,10,0,0,1,.78-4.1,2.86,2.86,0,0,1,2.86-1.75,13.88,13.88,0,0,0,5.4-1.24,19.17,19.17,0,0,0,5.72-3.9,24.08,24.08,0,0,0,4.81-6.69,31,31,0,0,0,2.79-9.49l-22-50.44a3.71,3.71,0,0,1-.52-1.82,4.48,4.48,0,0,1,1.5-3.19,11.67,11.67,0,0,1,3.57-2.4,9.74,9.74,0,0,1,3.9-.91,5.85,5.85,0,0,1,2.54.58,2.94,2.94,0,0,1,1.62,1.89l16.38,42.25,14.17-42.25a3,3,0,0,1,1.56-1.89,5.18,5.18,0,0,1,2.34-.58,9.73,9.73,0,0,1,3.71.91,13.18,13.18,0,0,1,3.77,2.4,4.58,4.58,0,0,1,1.62,3.45,2.6,2.6,0,0,1-.39,1.56l-19.5,50.83c-1.38,3.72-2.81,7.52-4.29,11.37a54.08,54.08,0,0,1-5.39,10.6,23.18,23.18,0,0,1-20.74,10.66Z" transform="translate(-388 -268)"/><path class="cls-21" d="M1123.79,570.39a35.49,35.49,0,0,1-14.37-2.86A22.62,22.62,0,0,1,1099,558.3q-3.92-6.37-3.91-16.9V503.57q0-10.53,3.91-16.9a22.57,22.57,0,0,1,10.52-9.23,36,36,0,0,1,14.44-2.86,36.65,36.65,0,0,1,15.53,3.05,25.25,25.25,0,0,1,10.27,8.32,20.61,20.61,0,0,1,3.7,12.16c0,2.95-.56,4.87-1.69,5.78a8.15,8.15,0,0,1-5.19,1.37,9.5,9.5,0,0,1-5-1.11,4,4,0,0,1-1.95-3.44,29.13,29.13,0,0,0-.64-4,14.17,14.17,0,0,0-2-4.62,11.28,11.28,0,0,0-4.48-3.77,18.71,18.71,0,0,0-8.2-1.49q-7.53,0-11.57,4.09t-4,12.68V541.4q0,8.58,4.09,12.67t11.89,4.1a17.36,17.36,0,0,0,7.87-1.5,10.73,10.73,0,0,0,4.36-3.77,14.51,14.51,0,0,0,1.95-4.81c.34-1.69.6-3.22.77-4.61a3.94,3.94,0,0,1,2-3.51,9.78,9.78,0,0,1,4.74-1q3.64,0,5.33,1.43t1.69,5.72a22,22,0,0,1-3.7,12.54,24.82,24.82,0,0,1-10.34,8.65A36.29,36.29,0,0,1,1123.79,570.39Z" transform="translate(-388 -268)"/><path class="cls-22" d="M1189.17,570.65A25.2,25.2,0,0,1,1176,567a28.77,28.77,0,0,1-9.81-9.56,23.43,23.43,0,0,1-3.71-12.67v-12a23.93,23.93,0,0,1,3.58-12.74,27.19,27.19,0,0,1,23.2-12.87,26.84,26.84,0,0,1,13.39,3.44,27.54,27.54,0,0,1,9.82,9.23,23.49,23.49,0,0,1,3.7,12.94v12a23.57,23.57,0,0,1-3.7,12.61,28.45,28.45,0,0,1-9.88,9.62A26,26,0,0,1,1189.17,570.65Zm.13-12.09a11.87,11.87,0,0,0,6.63-1.95,14.65,14.65,0,0,0,4.81-5.14,13.2,13.2,0,0,0,1.82-6.69v-12a12.67,12.67,0,0,0-1.82-6.5,14.88,14.88,0,0,0-4.81-5.07,12.35,12.35,0,0,0-13.32,0,14.6,14.6,0,0,0-4.68,5.07,13.1,13.1,0,0,0-1.76,6.5v12a13.65,13.65,0,0,0,1.76,6.69,14.2,14.2,0,0,0,4.74,5.14A11.91,11.91,0,0,0,1189.3,558.56Z" transform="translate(-388 -268)"/><path class="cls-23" d="M1234.8,569.61a7.85,7.85,0,0,1-4.87-1.43,4,4,0,0,1-1.89-3.12V512.41a3.7,3.7,0,0,1,1.89-3.19,8.75,8.75,0,0,1,4.87-1.23,7.46,7.46,0,0,1,4.29,1.23,3.74,3.74,0,0,1,1.82,3.19v4.68a19.35,19.35,0,0,1,17.42-9.88,19.85,19.85,0,0,1,11.25,3.44,25.51,25.51,0,0,1,8.25,9.23,26.83,26.83,0,0,1,3.12,12.94v32.24a3.67,3.67,0,0,1-2.14,3.38,9.77,9.77,0,0,1-4.75,1.17,9.6,9.6,0,0,1-4.55-1.17,3.68,3.68,0,0,1-2.21-3.38V532.82a13.08,13.08,0,0,0-1.75-6.5,14.43,14.43,0,0,0-4.75-5.07,12.05,12.05,0,0,0-12.61-.33,12.94,12.94,0,0,0-4.68,4.62,13.77,13.77,0,0,0-1.82,7.28v32.24a3.94,3.94,0,0,1-2,3.12A8.25,8.25,0,0,1,1234.8,569.61Z" transform="translate(-388 -268)"/><path class="cls-24" d="M1317.09,569.61q-11.05,0-16.9-4.88t-5.85-15.4V484.2a3.66,3.66,0,0,1,2.15-3.19,9.1,9.1,0,0,1,4.61-1.23,9.46,9.46,0,0,1,4.68,1.23,3.66,3.66,0,0,1,2.21,3.19V508h15.86a3.12,3.12,0,0,1,2.8,1.56,6.84,6.84,0,0,1,0,7,3.12,3.12,0,0,1-2.8,1.56H1308v31.2q0,4.68,2,6.63t7.08,1.95h4.42a5.58,5.58,0,0,1,4.49,1.75,6.16,6.16,0,0,1,1.49,4.1,6.23,6.23,0,0,1-1.49,4,5.5,5.5,0,0,1-4.49,1.82Z" transform="translate(-388 -268)"/><path class="cls-25" d="M1363.76,570.65a35.57,35.57,0,0,1-15.6-3.25,26.26,26.26,0,0,1-10.66-9,23.69,23.69,0,0,1-3.9-13.58V532.43a22.72,22.72,0,0,1,3.71-12.61,27.79,27.79,0,0,1,9.81-9.17,27.11,27.11,0,0,1,13.52-3.44,27.45,27.45,0,0,1,12.87,3.05,24.89,24.89,0,0,1,9.43,8.52,22.29,22.29,0,0,1,3.57,12.48q0,5.46-1.69,7.8a6.9,6.9,0,0,1-4.42,2.86,30.27,30.27,0,0,1-5.72.52h-27.43v3a12.57,12.57,0,0,0,4.75,10.33q4.74,3.84,12.15,3.84a18,18,0,0,0,7.41-1.3,48.79,48.79,0,0,0,4.81-2.47,7.14,7.14,0,0,1,3.64-1.17,4.16,4.16,0,0,1,2.86,1,7.28,7.28,0,0,1,1.82,2.47,6.4,6.4,0,0,1,.65,2.6q0,2-2.66,4.29a21.86,21.86,0,0,1-7.48,4A35.69,35.69,0,0,1,1363.76,570.65ZM1347.25,534h21.58q2.87,0,3.84-.78c.65-.52,1-1.56,1-3.12a12.39,12.39,0,0,0-1.69-6.31,11.91,11.91,0,0,0-4.68-4.55,14.89,14.89,0,0,0-13.39-.06,12.78,12.78,0,0,0-4.81,4.29,11.23,11.23,0,0,0-1.82,6.37Z" transform="translate(-388 -268)"/><path class="cls-26" d="M1404.45,569.61a7.85,7.85,0,0,1-4.87-1.43,4,4,0,0,1-1.89-3.12V512.41a3.7,3.7,0,0,1,1.89-3.19,8.75,8.75,0,0,1,4.87-1.23,7.46,7.46,0,0,1,4.29,1.23,3.74,3.74,0,0,1,1.82,3.19v4.68a19.35,19.35,0,0,1,17.42-9.88,19.8,19.8,0,0,1,11.24,3.44,25.45,25.45,0,0,1,8.26,9.23,26.83,26.83,0,0,1,3.12,12.94v32.24a3.69,3.69,0,0,1-2.14,3.38,9.77,9.77,0,0,1-4.75,1.17,9.6,9.6,0,0,1-4.55-1.17,3.68,3.68,0,0,1-2.21-3.38V532.82a13.08,13.08,0,0,0-1.75-6.5,14.43,14.43,0,0,0-4.75-5.07,12.05,12.05,0,0,0-12.61-.33,12.94,12.94,0,0,0-4.68,4.62,13.77,13.77,0,0,0-1.82,7.28v32.24a3.94,3.94,0,0,1-2,3.12A8.25,8.25,0,0,1,1404.45,569.61Z" transform="translate(-388 -268)"/><path class="cls-27" d="M1486.74,569.61q-11.06,0-16.9-4.88t-5.85-15.4V484.2a3.67,3.67,0,0,1,2.14-3.19,9.13,9.13,0,0,1,4.62-1.23,9.49,9.49,0,0,1,4.68,1.23,3.66,3.66,0,0,1,2.21,3.19V508h15.86a3.11,3.11,0,0,1,2.79,1.56,6.78,6.78,0,0,1,0,7,3.11,3.11,0,0,1-2.79,1.56h-15.86v31.2q0,4.68,2,6.63t7.09,1.95h4.42a5.55,5.55,0,0,1,4.48,1.75,6.12,6.12,0,0,1,1.5,4.1,6.19,6.19,0,0,1-1.5,4,5.46,5.46,0,0,1-4.48,1.82Z" transform="translate(-388 -268)"/></svg>