<?xml version="1.0" encoding="utf-8"?>
<!-- Generator: Adobe Illustrator 25.2.1, SVG Export Plug-In . SVG Version: 6.00 Build 0)  -->
<svg version="1.1"
	 id="logo3" sodipodi:docname="img3.svg" xmlns:inkscape="http://www.inkscape.org/namespaces/inkscape" xmlns:sodipodi="http://sodipodi.sourceforge.net/DTD/sodipodi-0.dtd" xmlns:svg="http://www.w3.org/2000/svg"
	 xmlns="http://www.w3.org/2000/svg" xmlns:xlink="http://www.w3.org/1999/xlink" x="0px" y="0px" viewBox="0 0 399.3 377.2"
	 style="enable-background:new 0 0 399.3 377.2;" xml:space="preserve">
<style type="text/css">
	.st0{fill:none;stroke:#000000;stroke-width:2;stroke-miterlimit:10;}
</style>
<sodipodi:namedview  bordercolor="#999999" borderopacity="1" id="namedview27" inkscape:current-layer="logo3" inkscape:cx="209.39891" inkscape:cy="277.22418" inkscape:pagecheckerboard="0" inkscape:pageopacity="0" inkscape:pageshadow="0" inkscape:window-height="1001" inkscape:window-maximized="1" inkscape:window-width="1920" inkscape:window-x="-9" inkscape:window-y="-9" inkscape:zoom="4.30518" pagecolor="#ffffff" showgrid="false">
	</sodipodi:namedview>
<path id="polygon6" d="M165.7,136.8l70.7,20.2l143-129.3c0.5-0.4,0-1.2-0.6-0.9L165.1,129.6C161.8,131.1,162.2,135.8,165.7,136.8z"
	/>
<path id="polygon8" d="M380.4,27.2L258.3,166l102,13.8c4.9,0.7,9.3-2.9,9.7-7.8l12-144.1C382.2,26.9,381,26.5,380.4,27.2z"/>
<path id="rect10" d="M199.8,256l20.3-10.2c2.1-1,4.5-0.2,5.6,1.9l0.8,1.5c1,2.1,0.2,4.5-1.9,5.6L204.3,265c-2.1,1-4.5,0.2-5.6-1.9
	l-0.8-1.5C197,259.5,197.8,257,199.8,256z"/>
<path id="rect12" d="M147.8,267.4l23.5,0.2c2.1,0,3.8,1.7,3.7,3.8v2.5c0,2.1-1.7,3.8-3.8,3.7l-23.5-0.2c-2.1,0-3.8-1.7-3.7-3.8v-2.5
	C144,269.1,145.7,267.4,147.8,267.4z"/>
<path id="rect14" d="M96.7,248.6l19.6,11.5c2,1.2,2.6,3.7,1.5,5.7l-0.9,1.5c-1.2,2-3.7,2.6-5.7,1.5l-19.6-11.5
	c-2-1.2-2.6-3.7-1.5-5.7L91,250C92.2,248.1,94.7,247.4,96.7,248.6z"/>
<path id="rect16" d="M44,252.1l22.6-9.9c1.6-0.7,3.5,0,4.2,1.6l1.5,3.3c0.7,1.6,0,3.5-1.6,4.2l-22.7,10c-1.6,0.7-3.5,0-4.2-1.6
	l-1.5-3.3C41.7,254.7,42.4,252.8,44,252.1z"/>
<path id="rect18" d="M27.4,295.6l3.5-23c0.3-2.1,2.3-3.6,4.4-3.2l2.2,0.3c2.1,0.3,3.6,2.3,3.2,4.4l-3.5,23c-0.3,2.1-2.3,3.6-4.4,3.2
	l-2.2-0.3C28.5,299.7,27,297.7,27.4,295.6z"/>
<path id="rect20" d="M48.5,343.4l-13.8-19.6c-1.1-1.6-0.7-3.8,0.9-4.9l2.4-1.7c1.6-1.1,3.8-0.7,4.9,0.9l13.8,19.6
	c1.1,1.6,0.7,3.8-0.9,4.9l-2.4,1.7C51.8,345.3,49.6,345,48.5,343.4z"/>
<line id="line22" class="st0" x1="236.3" y1="157" x2="248.3" y2="229"/>
<polygon id="polygon24" points="236.3,157 247.6,230 258.3,166 306.2,172.5 247.6,230 "/>
</svg>
