<svg id="Layer_1" data-name="Layer 1" xmlns="http://www.w3.org/2000/svg" xmlns:xlink="http://www.w3.org/1999/xlink" viewBox="0 0 1181 440"><defs><style>.cls-1{font-size:48px;font-family:Dosis-Regular, Dosis;}.cls-1,.cls-6{fill:#fff;}.cls-2{letter-spacing:-0.11em;}.cls-3{letter-spacing:-0.02em;}.cls-4{letter-spacing:-0.01em;}.cls-5{letter-spacing:-0.02em;}.cls-7{fill:url(#linear-gradient);}.cls-8{fill:url(#linear-gradient-2);}.cls-9{fill:url(#linear-gradient-3);}.cls-10{fill:url(#linear-gradient-4);}.cls-11{fill:url(#linear-gradient-5);}.cls-12{fill:url(#linear-gradient-6);}.cls-13{fill:url(#linear-gradient-7);}.cls-14{fill:url(#linear-gradient-8);}.cls-15{fill:url(#linear-gradient-9);}.cls-16{fill:url(#linear-gradient-10);}.cls-17{fill:url(#linear-gradient-11);}.cls-18{fill:url(#linear-gradient-12);}</style><linearGradient id="linear-gradient" x1="1320.99" y1="400.91" x2="607.32" y2="525.92" gradientUnits="userSpaceOnUse"><stop offset="0" stop-color="#386555"/><stop offset="1" stop-color="#63a489"/></linearGradient><linearGradient id="linear-gradient-2" x1="1325.69" y1="427.74" x2="612.02" y2="552.75" xlink:href="#linear-gradient"/><linearGradient id="linear-gradient-3" x1="1327.59" y1="438.55" x2="613.92" y2="563.56" xlink:href="#linear-gradient"/><linearGradient id="linear-gradient-4" x1="1326.14" y1="430.32" x2="612.47" y2="555.33" xlink:href="#linear-gradient"/><linearGradient id="linear-gradient-5" x1="1330.08" y1="452.77" x2="616.41" y2="577.78" xlink:href="#linear-gradient"/><linearGradient id="linear-gradient-6" x1="1328.19" y1="442.02" x2="614.52" y2="567.03" xlink:href="#linear-gradient"/><linearGradient id="linear-gradient-7" x1="1331.03" y1="458.2" x2="617.36" y2="583.21" xlink:href="#linear-gradient"/><linearGradient id="linear-gradient-8" x1="1336.22" y1="487.84" x2="622.55" y2="612.85" xlink:href="#linear-gradient"/><linearGradient id="linear-gradient-9" x1="1335.45" y1="483.43" x2="621.78" y2="608.44" xlink:href="#linear-gradient"/><linearGradient id="linear-gradient-10" x1="1336.86" y1="491.52" x2="623.19" y2="616.53" xlink:href="#linear-gradient"/><linearGradient id="linear-gradient-11" x1="1340.8" y1="513.97" x2="627.13" y2="638.98" xlink:href="#linear-gradient"/><linearGradient id="linear-gradient-12" x1="1342.4" y1="523.15" x2="628.73" y2="648.16" xlink:href="#linear-gradient"/></defs><rect x="0.5" y="0.5" width="1180" height="439"/><path d="M1568,370V808H389V370H1568m1-1H388V809H1569V369Z" transform="translate(-388 -369)"/><text class="cls-1" transform="translate(390.3 397.62)"><tspan class="cls-2">F</tspan><tspan x="18.29" y="0">eel f</tspan><tspan class="cls-3" x="96.48" y="0">r</tspan><tspan x="111.31" y="0">ee </tspan><tspan class="cls-4" x="164.87" y="0">t</tspan><tspan x="178.6" y="0">o </tspan><tspan class="cls-5" x="210.71" y="0">f</tspan><tspan x="224.49" y="0">ollow me!</tspan></text><rect class="cls-6" x="785" y="775" width="391" height="3" transform="translate(1573 1184) rotate(180)"/><path class="cls-7" d="M659.91,564.63A42,42,0,0,1,645,562.16a28.82,28.82,0,0,1-10.14-6c-2.43-2.38-3.64-4.66-3.64-6.82A7.27,7.27,0,0,1,632,546a9.84,9.84,0,0,1,2.21-2.93,4.32,4.32,0,0,1,2.93-1.23,5,5,0,0,1,3.44,1.49c1.08,1,2.41,2.19,4,3.58a22.65,22.65,0,0,0,5.85,3.64,25.35,25.35,0,0,0,17.35.06,12.75,12.75,0,0,0,5.85-4.55,13.12,13.12,0,0,0,2.15-7.73,13.89,13.89,0,0,0-2.28-8.19,18.64,18.64,0,0,0-6.11-5.46,68.7,68.7,0,0,0-8.25-4q-4.43-1.83-9-3.9a41.88,41.88,0,0,1-8.32-5,21.56,21.56,0,0,1-6.05-7.41,24.7,24.7,0,0,1-2.27-11.24,24.35,24.35,0,0,1,2.66-12,21.12,21.12,0,0,1,7.09-7.67,30.4,30.4,0,0,1,9.75-4.1,46.67,46.67,0,0,1,10.53-1.23,64.42,64.42,0,0,1,7.21.45,47.8,47.8,0,0,1,7.74,1.56,19.87,19.87,0,0,1,6.24,2.93,5.36,5.36,0,0,1,2.47,4.42,9.83,9.83,0,0,1-2.54,6.11,4.2,4.2,0,0,1-3.18,1.3,7.46,7.46,0,0,1-3.77-1.24,35.15,35.15,0,0,0-5.4-2.47,25.75,25.75,0,0,0-8.77-1.23,25.18,25.18,0,0,0-8.39,1.3,12.6,12.6,0,0,0-5.78,3.83,10.21,10.21,0,0,0-2.08,6.7,10.1,10.1,0,0,0,2.27,6.82,18.79,18.79,0,0,0,6,4.55,86.84,86.84,0,0,0,8.25,3.58,89.88,89.88,0,0,1,9,4,42.83,42.83,0,0,1,8.32,5.53,23.21,23.21,0,0,1,6.11,8.25,30,30,0,0,1,2.28,12.42q0,9.36-3.84,15.53a23.36,23.36,0,0,1-10.53,9.17A37.12,37.12,0,0,1,659.91,564.63Z" transform="translate(-388 -369)"/><path class="cls-8" d="M725.29,564.63A25.24,25.24,0,0,1,712.17,561a28.72,28.72,0,0,1-9.82-9.56,23.44,23.44,0,0,1-3.7-12.67v-12a24,24,0,0,1,3.57-12.74,27.19,27.19,0,0,1,23.2-12.87,26.84,26.84,0,0,1,13.39,3.44,27.54,27.54,0,0,1,9.82,9.23,23.49,23.49,0,0,1,3.7,12.94v12a23.57,23.57,0,0,1-3.7,12.61,28.45,28.45,0,0,1-9.88,9.62A26.1,26.1,0,0,1,725.29,564.63Zm.13-12.09a11.92,11.92,0,0,0,6.64-1.95,14.72,14.72,0,0,0,4.8-5.14,13.22,13.22,0,0,0,1.83-6.69v-12a12.65,12.65,0,0,0-1.83-6.5,14.94,14.94,0,0,0-4.8-5.07,11.92,11.92,0,0,0-6.64-2,11.78,11.78,0,0,0-6.69,2,14.6,14.6,0,0,0-4.68,5.07,13.07,13.07,0,0,0-1.76,6.5v12a13.65,13.65,0,0,0,1.76,6.69,14.2,14.2,0,0,0,4.74,5.14A11.91,11.91,0,0,0,725.42,552.54Z" transform="translate(-388 -369)"/><path class="cls-9" d="M789.12,564.63q-9.36,0-15.4-3.38a21.08,21.08,0,0,1-8.91-9.23A29.89,29.89,0,0,1,762,538.76v-11.7a30,30,0,0,1,2.86-13.2,21.07,21.07,0,0,1,8.84-9.29q6-3.39,15.21-3.38a34.34,34.34,0,0,1,10.47,1.43,20.36,20.36,0,0,1,7,3.57q2.53,2.15,2.53,4.49a7.23,7.23,0,0,1-.71,2.79,7.81,7.81,0,0,1-1.95,2.73,4.25,4.25,0,0,1-2.93,1.11,5,5,0,0,1-2.79-1,19.38,19.38,0,0,0-4-2,18.43,18.43,0,0,0-6.63-1q-7.27,0-10.79,3.64t-3.51,10.14v11.7q0,6.5,3.51,10.14T790,552.54a16.8,16.8,0,0,0,6.76-1.11,24.63,24.63,0,0,0,4-2.14,5,5,0,0,1,6.11,0,6.77,6.77,0,0,1,2.08,2.6,7,7,0,0,1,.71,2.86q0,2.21-2.66,4.55a20.49,20.49,0,0,1-7.28,3.83A34.3,34.3,0,0,1,789.12,564.63Z" transform="translate(-388 -369)"/><path class="cls-10" d="M826.17,486.5a7.88,7.88,0,0,1-5.59-2.21,6.68,6.68,0,0,1-2.34-4.94,6.51,6.51,0,0,1,2.34-5.07,8.13,8.13,0,0,1,5.59-2.08,7.89,7.89,0,0,1,5.53,2.08,6.61,6.61,0,0,1,2.27,5.07,6.78,6.78,0,0,1-2.27,4.94A7.66,7.66,0,0,1,826.17,486.5Zm0,77.09a7.85,7.85,0,0,1-4.87-1.43,4,4,0,0,1-1.89-3.12V506.39a3.7,3.7,0,0,1,1.89-3.19,8.75,8.75,0,0,1,4.87-1.23,9.21,9.21,0,0,1,4.88,1.23,3.67,3.67,0,0,1,2,3.19V559a4,4,0,0,1-2,3.12A8.25,8.25,0,0,1,826.17,563.59Z" transform="translate(-388 -369)"/><path class="cls-11" d="M860.62,564.63a18.44,18.44,0,0,1-12.22-4.23c-3.38-2.81-5.07-7.13-5.07-12.93q0-7.41,3.9-11.44A21,21,0,0,1,858,530.44a71.33,71.33,0,0,1,15.79-1.56h5.72v-2.34a18.1,18.1,0,0,0-1.23-6.57,11.44,11.44,0,0,0-11.64-7.47,23.33,23.33,0,0,0-7.41.91,18.26,18.26,0,0,0-4.16,2,5.29,5.29,0,0,1-2.86,1,4,4,0,0,1-3.64-2.28,9.14,9.14,0,0,1-1.3-4.61q0-2.34,3.06-4.23a26.48,26.48,0,0,1,7.6-3,38.21,38.21,0,0,1,9-1.1q9.61,0,15.34,3.57a21.19,21.19,0,0,1,8.32,9.3,29.53,29.53,0,0,1,2.6,12.35V559a3.91,3.91,0,0,1-1.88,3.18,7.9,7.9,0,0,1-4.75,1.37,7.16,7.16,0,0,1-4.42-1.37,3.94,3.94,0,0,1-1.82-3.18v-4.55a38.2,38.2,0,0,1-8.19,7A20.56,20.56,0,0,1,860.62,564.63Zm4.94-10.4a12.24,12.24,0,0,0,6.44-2,18.24,18.24,0,0,0,5.33-4.94,10.39,10.39,0,0,0,2.14-6.11v-4.81h-3.25a71.48,71.48,0,0,0-9.36.58,14.76,14.76,0,0,0-7.08,2.6c-1.78,1.35-2.67,3.4-2.67,6.18,0,2.94.8,5.09,2.41,6.43A9,9,0,0,0,865.56,554.23Z" transform="translate(-388 -369)"/><path class="cls-12" d="M914.83,563.59a7.85,7.85,0,0,1-4.87-1.43,4,4,0,0,1-1.89-3.12V469.73a3.7,3.7,0,0,1,1.89-3.19,8.75,8.75,0,0,1,4.87-1.23,9.21,9.21,0,0,1,4.88,1.23,3.67,3.67,0,0,1,2,3.19V559a4,4,0,0,1-2,3.12A8.25,8.25,0,0,1,914.83,563.59Z" transform="translate(-388 -369)"/><path class="cls-13" d="M971.38,563.59a9.75,9.75,0,0,1-4.75-1.17,3.69,3.69,0,0,1-2.14-3.38V475.45c0-2.6.72-4.4,2.14-5.4a8.16,8.16,0,0,1,4.75-1.49,11.83,11.83,0,0,1,4.29.71,9.25,9.25,0,0,1,3.38,2.41,25.1,25.1,0,0,1,3.25,4.68l18.2,34.45L1019,476.36a27.92,27.92,0,0,1,3.18-4.68,8.67,8.67,0,0,1,3.32-2.41,11.83,11.83,0,0,1,4.29-.71,8.08,8.08,0,0,1,4.81,1.49q2.09,1.5,2.08,5.4V559a3.68,3.68,0,0,1-2.15,3.38,10.21,10.21,0,0,1-9.49,0,3.67,3.67,0,0,1-2.14-3.38v-62.4l-17.42,32.24a6.66,6.66,0,0,1-2.34,2.4,5.28,5.28,0,0,1-5.2.07,5.22,5.22,0,0,1-2.21-2.47l-17.42-33V559a3.68,3.68,0,0,1-2.15,3.38A9.71,9.71,0,0,1,971.38,563.59Z" transform="translate(-388 -369)"/><path class="cls-14" d="M1079.8,564.63a35.71,35.71,0,0,1-15.6-3.25,26.26,26.26,0,0,1-10.66-9,23.69,23.69,0,0,1-3.9-13.58V526.41a22.77,22.77,0,0,1,3.7-12.61,27.73,27.73,0,0,1,9.82-9.17,27.11,27.11,0,0,1,13.52-3.44,27.45,27.45,0,0,1,12.87,3.05,24.79,24.79,0,0,1,9.42,8.52,22.22,22.22,0,0,1,3.58,12.48q0,5.46-1.69,7.8a6.9,6.9,0,0,1-4.42,2.86,31.12,31.12,0,0,1-5.72.52h-27.43v3a12.57,12.57,0,0,0,4.75,10.33q4.74,3.84,12.15,3.84a18.16,18.16,0,0,0,7.41-1.3,48.79,48.79,0,0,0,4.81-2.47,7.14,7.14,0,0,1,3.64-1.17,4.11,4.11,0,0,1,2.86,1,7.31,7.31,0,0,1,1.82,2.47,6.4,6.4,0,0,1,.65,2.6q0,1.95-2.67,4.29a21.71,21.71,0,0,1-7.47,4A36,36,0,0,1,1079.8,564.63ZM1063.29,528h21.58c1.91,0,3.18-.26,3.84-.78s1-1.56,1-3.12a12.36,12.36,0,0,0-1.69-6.31,11.91,11.91,0,0,0-4.68-4.55,14.89,14.89,0,0,0-13.39-.06,12.78,12.78,0,0,0-4.81,4.29,11.23,11.23,0,0,0-1.82,6.37Z" transform="translate(-388 -369)"/><path class="cls-15" d="M1134.27,564.63A19.34,19.34,0,0,1,1123,561a27.2,27.2,0,0,1-8.39-9.56,26.35,26.35,0,0,1-3.18-12.67v-12a26.42,26.42,0,0,1,3.18-12.94,25.87,25.87,0,0,1,8.39-9.23,20.52,20.52,0,0,1,11.57-3.44,17.73,17.73,0,0,1,10.53,3.05,20.94,20.94,0,0,1,6.37,6.83V469.73a3.65,3.65,0,0,1,2.08-3.19,9.51,9.51,0,0,1,4.94-1.23,8.5,8.5,0,0,1,4.74,1.23,3.7,3.7,0,0,1,1.89,3.19V559a4,4,0,0,1-1.89,3.12,7.63,7.63,0,0,1-4.74,1.43,7,7,0,0,1-4.36-1.43,4,4,0,0,1-1.88-3.12v-4.55a17.58,17.58,0,0,1-6.89,7.08A20.58,20.58,0,0,1,1134.27,564.63Zm3.9-12.09a11.63,11.63,0,0,0,6.76-2.08,18.67,18.67,0,0,0,4.74-4.62,8,8,0,0,0,1.76-4.09v-15a13,13,0,0,0-2-7.28,13.64,13.64,0,0,0-4.94-4.62,13,13,0,0,0-6.24-1.62,12.21,12.21,0,0,0-6.7,2,14.24,14.24,0,0,0-4.81,5.07,13.06,13.06,0,0,0-1.75,6.5v12a13.82,13.82,0,0,0,1.75,6.63,14.08,14.08,0,0,0,4.75,5.2A11.87,11.87,0,0,0,1138.17,552.54Z" transform="translate(-388 -369)"/><path class="cls-16" d="M1186.27,486.5a7.87,7.87,0,0,1-5.59-2.21,6.68,6.68,0,0,1-2.34-4.94,6.51,6.51,0,0,1,2.34-5.07,8.11,8.11,0,0,1,5.59-2.08,7.87,7.87,0,0,1,5.52,2.08,6.59,6.59,0,0,1,2.28,5.07,6.75,6.75,0,0,1-2.28,4.94A7.64,7.64,0,0,1,1186.27,486.5Zm0,77.09a7.88,7.88,0,0,1-4.88-1.43,4,4,0,0,1-1.88-3.12V506.39a3.71,3.71,0,0,1,1.88-3.19,8.78,8.78,0,0,1,4.88-1.23,9.17,9.17,0,0,1,4.87,1.23,3.66,3.66,0,0,1,2,3.19V559a4,4,0,0,1-2,3.12A8.22,8.22,0,0,1,1186.27,563.59Z" transform="translate(-388 -369)"/><path class="cls-17" d="M1220.72,564.63a18.44,18.44,0,0,1-12.22-4.23c-3.38-2.81-5.07-7.13-5.07-12.93q0-7.41,3.9-11.44a21,21,0,0,1,10.72-5.59,71.43,71.43,0,0,1,15.8-1.56h5.72v-2.34a18.11,18.11,0,0,0-1.24-6.57,11.44,11.44,0,0,0-11.63-7.47,23.33,23.33,0,0,0-7.41.91,18.06,18.06,0,0,0-4.16,2,5.32,5.32,0,0,1-2.86,1,4,4,0,0,1-3.64-2.28,9.14,9.14,0,0,1-1.3-4.61c0-1.56,1-3,3.05-4.23a26.55,26.55,0,0,1,7.61-3,38.21,38.21,0,0,1,9-1.1q9.61,0,15.34,3.57a21.25,21.25,0,0,1,8.32,9.3,29.53,29.53,0,0,1,2.6,12.35V559a3.9,3.9,0,0,1-1.89,3.18,7.89,7.89,0,0,1-4.74,1.37,7.14,7.14,0,0,1-4.42-1.37,3.91,3.91,0,0,1-1.82-3.18v-4.55a38.7,38.7,0,0,1-8.19,7A20.56,20.56,0,0,1,1220.72,564.63Zm4.94-10.4a12.2,12.2,0,0,0,6.43-2,18.24,18.24,0,0,0,5.33-4.94,10.4,10.4,0,0,0,2.15-6.11v-4.81h-3.25a71.26,71.26,0,0,0-9.36.58,14.84,14.84,0,0,0-7.09,2.6c-1.78,1.35-2.66,3.4-2.66,6.18,0,2.94.8,5.09,2.4,6.43A9.06,9.06,0,0,0,1225.66,554.23Z" transform="translate(-388 -369)"/><path class="cls-18" d="M1285.85,564.63a38.84,38.84,0,0,1-11.44-1.56,23.24,23.24,0,0,1-8-4c-2-1.6-2.92-3.23-2.92-4.87a7.48,7.48,0,0,1,2.27-5.07,3.43,3.43,0,0,1,2.41-1,5.91,5.91,0,0,1,3.57,1.49,26.33,26.33,0,0,0,5,3,20.51,20.51,0,0,0,8.71,1.5q6.49,0,8.77-2.21a6.64,6.64,0,0,0,2.28-4.81,6.46,6.46,0,0,0-2.28-5.27,17.9,17.9,0,0,0-5.85-3c-2.38-.78-4.92-1.54-7.6-2.28a39.7,39.7,0,0,1-7.61-2.92,15.92,15.92,0,0,1-5.85-5.07,14.66,14.66,0,0,1-2.27-8.58,19.17,19.17,0,0,1,2.21-8.78,17.31,17.31,0,0,1,7.08-7.15q4.88-2.79,13.07-2.79a40.44,40.44,0,0,1,9.36,1,24.82,24.82,0,0,1,7.28,2.79c1.9,1.17,2.86,2.45,2.86,3.84a7.51,7.51,0,0,1-.65,2.53,9.54,9.54,0,0,1-1.76,2.86,3.58,3.58,0,0,1-2.79,1.24,7.67,7.67,0,0,1-3.25-1,38.31,38.31,0,0,0-4.55-1.88,19.38,19.38,0,0,0-6.37-.91,12.74,12.74,0,0,0-6,1.23,8.51,8.51,0,0,0-3.31,2.93,6.32,6.32,0,0,0-1,3.38,5.08,5.08,0,0,0,2.21,4.42,19.49,19.49,0,0,0,5.85,2.6c2.42.69,5,1.41,7.67,2.14a31.79,31.79,0,0,1,7.6,3.19,17.18,17.18,0,0,1,5.85,5.59q2.28,3.51,2.28,9.36a16.27,16.27,0,0,1-5.92,13.13Q1296.77,564.63,1285.85,564.63Z" transform="translate(-388 -369)"/></svg>