<?xml version="1.0" encoding="utf-8"?>
<!-- Generator: Adobe Illustrator 25.2.1, SVG Export Plug-In . SVG Version: 6.00 Build 0)  -->
<svg version="1.1"
	 id="svg5" sodipodi:docname="robot.svg" xmlns:inkscape="http://www.inkscape.org/namespaces/inkscape" xmlns:sodipodi="http://sodipodi.sourceforge.net/DTD/sodipodi-0.dtd" xmlns:svg="http://www.w3.org/2000/svg"
	 xmlns="http://www.w3.org/2000/svg" xmlns:xlink="http://www.w3.org/1999/xlink" x="0px" y="0px" viewBox="0 0 2080 1080"
	 style="enable-background:new 0 0 2080 1080;" xml:space="preserve">
<style type="text/css">
	.st0{display:none;opacity:0.2805;}
	.st1{enable-background:new    ;}
	.st2{font-family:'ArialMT';}
	.st3{font-size:160px;}
	.st4{fill:#CCCCCC;}
	.st5{fill:#333333;stroke:#333333;stroke-width:2.1354;stroke-miterlimit:15.1181;}
	.st6{fill:#65A78B;}
	.st7{fill:#ECECEC;}
	.st8{fill:#F9F9F9;stroke:#F9F9F9;stroke-width:1;stroke-miterlimit:15.1181;}
	.st9{fill:#F9F9F9;stroke:#65A78B;stroke-width:3.6472;stroke-miterlimit:15.1181;}
	.st10{fill:#CCCCCC;stroke:#CCCCCC;stroke-width:1;stroke-miterlimit:15.1181;}
	.st11{fill:#F9F9F9;}
</style>
<sodipodi:namedview  bordercolor="#999999" borderopacity="1" height="2080px" id="namedview7" inkscape:current-layer="layer3" inkscape:cx="949.16596" inkscape:cy="560.11544" inkscape:document-units="mm" inkscape:pagecheckerboard="0" inkscape:pageopacity="0" inkscape:pageshadow="0" inkscape:window-height="1017" inkscape:window-maximized="1" inkscape:window-width="1920" inkscape:window-x="-8" inkscape:window-y="-8" inkscape:zoom="0.5115017" pagecolor="#ffffff" showgrid="false" units="px">
	</sodipodi:namedview>
<g id="layer1" inkscape:groupmode="layer" inkscape:label="Layer 1" sodipodi:insensitive="true" class="st0">
	
		<image style="display:inline;overflow:visible;enable-background:new    ;" width="1080" height="1583" id="image832" xlink:href="F63D56FB.jpeg"  transform="matrix(1 0 0 1 46.1433 -184.6205)">
	</image>
</g>
<g id="layer2" inkscape:groupmode="layer" inkscape:label="Layer 2">
</g>
<g id="layer3" inkscape:groupmode="layer" inkscape:label="Layer 3">
	<g class="st1">
		<path d="M963.3,578c-2.1,0-4.1-0.5-5.8-1.4c-1.8-1-2.6-2.3-2.6-4.2v-95.8H930c-1.7,0-3-0.8-4-2.4c-1-1.6-1.4-3.4-1.4-5.4
			c0-1.9,0.4-3.7,1.3-5.3c0.9-1.6,2.2-2.4,4.2-2.4h66.4c2,0,3.5,0.8,4.3,2.4c0.9,1.6,1.3,3.3,1.3,5.1c0,2.1-0.5,4-1.4,5.6
			c-0.9,1.6-2.3,2.4-4.2,2.4h-24.6v95.8c0,1.8-0.9,3.2-2.6,4.2C967.3,577.6,965.4,578,963.3,578z"/>
		<path d="M1021,578c-2.5,0-4.5-0.6-6-1.8c-1.5-1.2-2.3-2.5-2.3-3.8V462.5c0-1.6,0.8-2.9,2.3-3.9c1.5-1,3.5-1.5,6-1.5
			c2.3,0,4.3,0.5,6,1.5c1.7,1,2.5,2.3,2.5,3.9v50.9c1.6-3.1,4.1-5.9,7.6-8.4c3.5-2.5,7.8-3.8,12.9-3.8c5,0,9.6,1.4,13.8,4.2
			c4.2,2.8,7.6,6.6,10.2,11.4c2.6,4.7,3.8,10.1,3.8,15.9v39.7c0,1.8-0.9,3.2-2.6,4.2c-1.8,1-3.7,1.4-5.8,1.4c-1.9,0-3.8-0.5-5.6-1.4
			c-1.8-1-2.7-2.3-2.7-4.2v-39.7c0-2.8-0.7-5.4-2.2-8c-1.5-2.6-3.4-4.6-5.8-6.2c-2.4-1.6-5.1-2.4-8.1-2.4c-2.6,0-5,0.7-7.4,2
			c-2.3,1.3-4.3,3.2-5.8,5.7c-1.5,2.5-2.2,5.4-2.2,9v39.7c0,1.4-0.8,2.7-2.5,3.8C1025.4,577.4,1023.4,578,1021,578z"/>
		<path d="M1111.1,579.3c-5.9,0-10.9-1.7-15-5.2c-4.2-3.5-6.2-8.8-6.2-15.9c0-6.1,1.6-10.8,4.8-14.1c3.2-3.3,7.6-5.6,13.2-6.9
			c5.6-1.3,12.1-1.9,19.4-1.9h7v-2.9c0-2.8-0.5-5.5-1.5-8.1c-1-2.6-2.7-4.8-5-6.6c-2.3-1.8-5.4-2.6-9.4-2.6c-3.9,0-7,0.4-9.1,1.1
			c-2.1,0.7-3.8,1.5-5.1,2.4c-1.3,0.9-2.5,1.3-3.5,1.3c-1.9,0-3.4-0.9-4.5-2.8c-1.1-1.9-1.6-3.8-1.6-5.7c0-1.9,1.3-3.7,3.8-5.2
			c2.5-1.5,5.6-2.8,9.4-3.7c3.7-0.9,7.4-1.4,11-1.4c7.9,0,14.2,1.5,18.9,4.4c4.7,2.9,8.1,6.7,10.2,11.4c2.1,4.7,3.2,9.8,3.2,15.2
			v40.2c0,1.5-0.8,2.8-2.3,3.9c-1.5,1.1-3.5,1.7-5.8,1.7c-2.1,0-3.9-0.6-5.4-1.7c-1.5-1.1-2.2-2.4-2.2-3.9v-5.6
			c-2.8,3.2-6.1,6.1-10.1,8.6C1121.2,578,1116.5,579.3,1111.1,579.3z M1117.2,566.5c2.7,0,5.3-0.8,7.9-2.4c2.6-1.6,4.8-3.6,6.6-6.1
			c1.8-2.5,2.6-5,2.6-7.5v-5.9h-4c-4.1,0-7.9,0.2-11.5,0.7c-3.6,0.5-6.5,1.5-8.7,3.2c-2.2,1.7-3.3,4.2-3.3,7.6c0,3.6,1,6.3,3,7.9
			C1111.7,565.7,1114.2,566.5,1117.2,566.5z"/>
		<path d="M1176.4,578c-2.5,0-4.5-0.6-6-1.8c-1.5-1.2-2.3-2.5-2.3-3.8v-64.8c0-1.6,0.8-2.9,2.3-3.9c1.5-1,3.5-1.5,6-1.5
			c2,0,3.8,0.5,5.3,1.5c1.5,1,2.2,2.3,2.2,3.9v5.8c1.6-3.1,4.2-5.9,7.9-8.4c3.7-2.5,8.2-3.8,13.5-3.8c5,0,9.6,1.4,13.8,4.2
			c4.2,2.8,7.6,6.6,10.2,11.4c2.6,4.7,3.8,10.1,3.8,15.9v39.7c0,1.8-0.9,3.2-2.6,4.2c-1.8,1-3.7,1.4-5.8,1.4c-1.9,0-3.8-0.5-5.6-1.4
			c-1.8-1-2.7-2.3-2.7-4.2v-39.7c0-2.8-0.7-5.4-2.2-8c-1.4-2.6-3.4-4.6-5.8-6.2c-2.5-1.6-5.2-2.4-8.2-2.4c-2.6,0-5,0.7-7.4,2
			c-2.3,1.3-4.3,3.2-5.8,5.7c-1.5,2.5-2.2,5.4-2.2,9v39.7c0,1.4-0.8,2.7-2.5,3.8C1180.7,577.4,1178.7,578,1176.4,578z"/>
		<path d="M1258.3,578c-2.3,0-4.3-0.6-5.8-1.8c-1.5-1.2-2.3-2.5-2.3-3.8V462.5c0-1.6,0.8-2.9,2.3-3.9c1.5-1,3.5-1.5,5.8-1.5
			c2.5,0,4.5,0.5,6.2,1.5c1.7,1,2.5,2.3,2.5,3.9v71.2l33.4-30.7c1-1,2.1-1.4,3.5-1.4c1.3,0,2.5,0.4,3.8,1.2c1.2,0.8,2.3,1.8,3.1,3
			c0.9,1.2,1.3,2.5,1.3,3.8c0,0.6-0.1,1.3-0.3,1.8c-0.2,0.6-0.6,1.1-1.1,1.7l-20.6,18.4l25.1,36.2c0.6,1.1,1,2,1,2.9
			c0,1.4-0.5,2.7-1.5,4c-1,1.3-2.2,2.3-3.7,3.2c-1.4,0.9-2.9,1.3-4.2,1.3c-1.9,0-3.4-0.8-4.5-2.4l-23.5-34.7l-11.7,10.6v20
			c0,1.4-0.8,2.7-2.5,3.8C1262.8,577.4,1260.7,578,1258.3,578z"/>
		<path d="M1394.3,578c-2.1,0-4.1-0.5-5.8-1.4s-2.6-2.3-2.6-4.2V532c0-0.6-0.2-1.2-0.5-1.8l-33.1-59.7c-0.2-0.5-0.3-1-0.4-1.4
			c-0.1-0.4-0.1-0.7-0.1-1c0-1.4,0.6-2.6,1.8-3.6c1.2-1,2.6-1.8,4.2-2.5c1.7-0.6,3.2-1,4.7-1c1.4,0,2.5,0.3,3.3,1s1.5,1.6,2.2,2.9
			l26.4,50.7l26.2-50.7c0.7-1.3,1.5-2.2,2.3-2.9s1.9-1,3.3-1c1.5,0,3.1,0.3,4.7,1c1.7,0.6,3.1,1.5,4.2,2.5c1.2,1,1.8,2.2,1.8,3.6
			c0,0.3,0,0.7-0.1,1c-0.1,0.4-0.2,0.8-0.6,1.4l-33,59.7c-0.3,0.5-0.5,1.1-0.5,1.8v40.5c0,1.8-0.9,3.2-2.6,4.2
			C1398.4,577.6,1396.4,578,1394.3,578z"/>
		<path d="M1461.5,579.3c-5.8,0-11.1-1.5-16.2-4.5c-5-3-9-6.9-12.1-11.8c-3-4.9-4.6-10.1-4.6-15.6v-14.7c0-5.7,1.5-10.9,4.4-15.7
			c2.9-4.8,6.9-8.6,12-11.5c5.1-2.9,10.6-4.3,16.6-4.3c6,0,11.5,1.4,16.5,4.2c5,2.8,9,6.6,12.1,11.4c3,4.7,4.6,10.1,4.6,15.9v14.7
			c0,5.4-1.5,10.6-4.6,15.5c-3,4.9-7.1,8.9-12.2,11.8C1473,577.8,1467.5,579.3,1461.5,579.3z M1461.6,564.4c3,0,5.7-0.8,8.2-2.4
			c2.5-1.6,4.4-3.7,5.9-6.3c1.5-2.6,2.2-5.4,2.2-8.2v-14.7c0-2.8-0.7-5.4-2.2-8c-1.5-2.6-3.5-4.6-5.9-6.2c-2.5-1.6-5.2-2.4-8.2-2.4
			c-3.1,0-5.8,0.8-8.2,2.4c-2.4,1.6-4.3,3.7-5.8,6.2c-1.4,2.6-2.2,5.2-2.2,8v14.7c0,2.9,0.7,5.6,2.2,8.2c1.4,2.6,3.4,4.7,5.8,6.3
			C1455.9,563.6,1458.7,564.4,1461.6,564.4z"/>
		<path d="M1541.6,579.3c-6,0-11.5-1.5-16.6-4.4c-5.1-2.9-9.1-6.8-12.1-11.7c-3-4.9-4.5-10-4.5-15.4v-40c0-1.4,0.8-2.7,2.5-3.8
			c1.7-1.2,3.7-1.8,6-1.8c2.2,0,4.2,0.6,5.8,1.8c1.7,1.2,2.5,2.5,2.5,3.8v40c0,2.8,0.7,5.4,2.2,8c1.4,2.6,3.4,4.6,5.9,6.2
			c2.5,1.6,5.3,2.4,8.2,2.4c3,0,5.7-0.8,8.2-2.4c2.5-1.6,4.4-3.7,5.8-6.2c1.4-2.6,2.2-5.2,2.2-8v-40.2c0-1.5,0.9-2.8,2.6-3.8
			c1.8-1.1,3.7-1.6,5.8-1.6c2.5,0,4.5,0.5,6,1.6c1.5,1.1,2.3,2.3,2.3,3.8v40.2c0,5.7-1.5,10.9-4.5,15.7c-3,4.8-7,8.6-12,11.5
			C1553.1,577.9,1547.6,579.3,1541.6,579.3z"/>
		<path d="M1599.9,579c-2.8,0-5.1-1-6.9-2.9c-1.8-1.9-2.7-4.2-2.7-6.7c0-2.7,0.9-4.9,2.7-6.8c1.8-1.9,4.1-2.8,6.9-2.8
			c2.6,0,4.8,0.9,6.6,2.8c1.9,1.9,2.8,4.1,2.8,6.8c0,2.6-0.9,4.8-2.8,6.7C1604.7,578,1602.4,579,1599.9,579z M1599.7,548
			c-1.7,0-3.2-0.4-4.6-1.3c-1.3-0.9-2-2.1-2-3.8c0-7.8-0.2-16-0.5-24.6c-0.3-8.6-0.6-17.3-1-26c-0.3-8.7-0.5-16.9-0.5-24.6
			c0-2.5,0.8-4.3,2.4-5.7c1.6-1.3,3.6-2,6.1-2c2.3,0,4.3,0.7,6,2c1.7,1.3,2.5,3.2,2.5,5.7c0,7.7-0.2,15.9-0.5,24.6
			c-0.3,8.7-0.6,17.4-1,26c-0.3,8.6-0.5,16.9-0.5,24.6c0,1.7-0.7,3-2.2,3.8C1602.5,547.5,1601.1,548,1599.7,548z"/>
	</g>
	<text transform="matrix(1 0 0 1 1723.4769 578.0341)" class="st2 st3"> </text>
	<path id="path4429-5" sodipodi:nodetypes="cssscsc" class="st4" d="M722.4,486.2c0,0-32.9-33.9,5.9-69.1
		c33.6-30.6,20.4,19.1,17.2,27.8c-4.4,12,25.7,39.2,45.5,16.5c29.9-34.4,34.9-11.6,34.9-11.6s7.2,50.5-57.4,62.4
		C717,521.8,722.4,486.2,722.4,486.2z"/>
	<path id="path2960-5" sodipodi:nodetypes="csccc" class="st5" d="M574.9,705.3c0,0-22.9-31.1-1.9-72.9
		c21.1-41.8,84.8-11.3,148.4-131.6l38,18.8C759.4,519.6,709.7,687,574.9,705.3L574.9,705.3z"/>
	
		<ellipse id="path4292-7" transform="matrix(0.5585 -0.8295 0.8295 0.5585 -87.3233 839.7392)" class="st6" cx="745.2" cy="501.9" rx="26.5" ry="27.4"/>
	<ellipse id="path903-1" class="st7" cx="410.9" cy="578.7" rx="226.7" ry="231.6"/>
	<path id="path7392" class="st8" d="M595.3,446.6l40.6,155.9l0.8-2c0,0,5.7-57.4-13.1-102.3C604.6,453.3,595.3,446.6,595.3,446.6"/>
	<path id="path1133-1" sodipodi:nodetypes="cscsc" class="st9" d="M596.4,447.8c0,0-85.9-23.1-175.4,11.9S378.1,594,378.1,594
		s17.3,30.4,41.5,27.6c24.2-2.8,173.8-41.2,216.3-19.1"/>
	<path id="path14177" sodipodi:nodetypes="ccc" class="st10" d="M552.3,759.2c-103.7-79.8-200.5,42.7-200.5,42.7
		S461.1,837.6,552.3,759.2z"/>
	
		<ellipse id="path5198-6-6" transform="matrix(0.9812 -0.1928 0.1928 0.9812 -87.3589 120.206)" class="st6" cx="574" cy="509" rx="30.9" ry="53"/>
	<path id="path4429-51" sodipodi:nodetypes="cssscsc" class="st4" d="M248.5,860.9c0,0,46.2,9.8,33.7,60.6
		c-10.8,44.2-27.6-4.4-29.8-13.4c-3-12.5-43.2-18.1-46.9,11.7c-5.6,45.2-22.5,29.1-22.5,29.1s-34.1-37.9,12.7-83.8
		C233.1,828.4,248.5,860.9,248.5,860.9z"/>
	<path id="path2489-5" class="st6" d="M374.9,363l-7.2-145l15.1-1.8l21.8,145.6C404.6,361.9,384.1,368.1,374.9,363z"/>
	
		<ellipse id="path2791-7" transform="matrix(0.9988 -4.962932e-02 4.962932e-02 0.9988 -9.7569 18.849)" class="st6" cx="374.7" cy="205.9" rx="19.4" ry="19.7"/>
	<path id="path2960-9" sodipodi:nodetypes="csccc" class="st5" d="M248.5,596.8c0,0,36.4,13,42.2,59.4c5.9,46.4-64,56.7-49.6,192
		l-42,5.7C199.1,853.9,146.9,687.3,248.5,596.8z"/>
	<ellipse id="path4292-2" class="st6" cx="220.8" cy="860.6" rx="27.4" ry="26.5"/>
	
		<ellipse id="path5198-8" transform="matrix(0.9659 -0.2588 0.2588 0.9659 -119.2369 138.5939)" class="st6" cx="466.7" cy="522.1" rx="35.2" ry="55.7"/>
	
		<ellipse id="path5342-08" transform="matrix(0.9828 -0.1849 0.1849 0.9828 -83.8252 97.5319)" class="st11" cx="481.1" cy="498.3" rx="13.1" ry="21.2"/>
	
		<ellipse id="path5342-0-0" transform="matrix(0.9795 -0.2014 0.2014 0.9795 -86.3027 128.7196)" class="st11" cx="589.3" cy="488.4" rx="12.1" ry="19"/>
	
		<ellipse id="path5342-9-8" transform="matrix(0.9749 -0.2225 0.2225 0.9749 -103.4341 117.4591)" cx="469.7" cy="517.9" rx="9" ry="17.6"/>
	
		<ellipse id="path5342-9-6-4" transform="matrix(0.9749 -0.2225 0.2225 0.9749 -97.9686 141.1695)" cx="577.7" cy="505.5" rx="7.7" ry="15.1"/>
</g>
</svg>
