<?xml version="1.0" encoding="UTF-8" standalone="no"?>
<!-- Generator: Adobe Illustrator 25.4.1, SVG Export Plug-In . SVG Version: 6.00 Build 0)  -->

<svg
   version="1.1"
   x="0px"
   y="0px"
   viewBox="0 0 700 250"
   xml:space="preserve"
   id="svg150"
   sodipodi:docname="skills.svg"
   inkscape:version="1.1.1 (3bf5ae0d25, 2021-09-20)"
   width="700"
   height="250"
   xmlns:inkscape="http://www.inkscape.org/namespaces/inkscape"
   xmlns:sodipodi="http://sodipodi.sourceforge.net/DTD/sodipodi-0.dtd"
   xmlns="http://www.w3.org/2000/svg"
   xmlns:svg="http://www.w3.org/2000/svg"><defs
   id="defs154"><rect
     x="386.98846"
     y="29.14274"
     width="91.369766"
     height="27.860603"
     id="rect3446" /></defs><sodipodi:namedview
   id="namedview152"
   pagecolor="#ffffff"
   bordercolor="#999999"
   borderopacity="1"
   inkscape:pageshadow="0"
   inkscape:pageopacity="0"
   inkscape:pagecheckerboard="0"
   showgrid="false"
   inkscape:zoom="1.4754962"
   inkscape:cx="522.19723"
   inkscape:cy="-127.0759"
   inkscape:window-width="1920"
   inkscape:window-height="1001"
   inkscape:window-x="-9"
   inkscape:window-y="-9"
   inkscape:window-maximized="1"
   inkscape:current-layer="text" />
<style
   type="text/css"
   id="style2">
	.st0{fill:#ECECEC;}
</style>

<g
   id="text"
   transform="translate(-4)">
	<path
   class="st0"
   d="M 145.13275,106.04042 H 46.332748 c -5.6,0 -10.1,-4.5 -10.1,-10.100003 v -17.9 c 0,-5.6 4.5,-10.1 10.1,-10.1 h 98.900002 c 5.6,0 10.1,4.5 10.1,10.1 v 17.9 c -0.1,5.600003 -4.6,10.100003 -10.2,10.100003 z"
   id="path123-9"
   style="fill:#ececec" /><g
   id="g19"
   transform="translate(-42.083067,-1.5207668)">
		<path
   d="m 110,96.6 -5.8,-15 h 2.2 l 3.9,10.9 c 0.3,0.9 0.6,1.7 0.8,2.5 0.2,-0.8 0.5,-1.6 0.8,-2.5 L 116,81.6 h 2 l -5.9,15 z"
   id="path7" />
		<path
   d="m 119.7,96.6 v -15 h 5.6 c 1.1,0 2.1,0.2 2.8,0.5 0.7,0.3 1.2,0.8 1.6,1.4 0.4,0.6 0.6,1.3 0.6,2 0,0.6 -0.2,1.2 -0.5,1.8 -0.3,0.6 -0.9,1 -1.6,1.4 0.9,0.3 1.6,0.7 2.1,1.4 0.5,0.6 0.7,1.4 0.7,2.3 0,0.7 -0.1,1.4 -0.4,2 -0.3,0.6 -0.7,1.1 -1.1,1.4 -0.4,0.3 -1,0.6 -1.6,0.7 -0.7,0.2 -1.5,0.3 -2.4,0.3 h -5.8 z m 2,-8.7 h 3.3 c 0.9,0 1.5,-0.1 1.9,-0.2 0.5,-0.2 0.9,-0.4 1.1,-0.7 0.3,-0.3 0.4,-0.8 0.4,-1.3 0,-0.5 -0.1,-0.9 -0.4,-1.3 -0.2,-0.4 -0.6,-0.6 -1,-0.8 -0.4,-0.2 -1.2,-0.2 -2.3,-0.2 h -3 z m 0,7 h 3.7 c 0.6,0 1.1,0 1.4,-0.1 0.5,-0.1 0.8,-0.2 1.1,-0.4 0.3,-0.2 0.6,-0.5 0.8,-0.8 0.2,-0.4 0.3,-0.8 0.3,-1.3 0,-0.6 -0.1,-1 -0.4,-1.5 -0.3,-0.4 -0.7,-0.7 -1.2,-0.9 -0.5,-0.2 -1.2,-0.3 -2.2,-0.3 h -3.5 z"
   id="path9" />
		<path
   d="m 134.1,96.6 v -2.1 h 2.1 v 2.1 z"
   id="path11" />
		<path
   d="m 139.6,96.6 v -15 h 2 l 7.9,11.8 V 81.6 h 1.9 v 15 h -2 l -7.9,-11.8 v 11.8 z"
   id="path13" />
		<path
   d="m 162,93.1 1.9,0.2 c -0.3,1.1 -0.9,2 -1.7,2.6 -0.8,0.6 -1.9,0.9 -3.1,0.9 -1.6,0 -2.9,-0.5 -3.8,-1.5 -0.9,-1 -1.4,-2.4 -1.4,-4.1 0,-1.8 0.5,-3.3 1.4,-4.3 0.9,-1 2.2,-1.5 3.7,-1.5 1.5,0 2.6,0.5 3.6,1.5 1,1 1.4,2.4 1.4,4.2 0,0.1 0,0.3 0,0.5 h -8.1 c 0.1,1.2 0.4,2.1 1,2.7 0.6,0.6 1.4,1 2.3,1 0.7,0 1.3,-0.2 1.7,-0.5 0.4,-0.3 0.8,-0.9 1.1,-1.7 z m -6.1,-2.9 h 6.1 c -0.1,-0.9 -0.3,-1.6 -0.7,-2.1 -0.6,-0.7 -1.4,-1.1 -2.3,-1.1 -0.8,0 -1.6,0.3 -2.1,0.9 -0.5,0.6 -0.9,1.3 -1,2.3 z"
   id="path15" />
		<path
   d="m 170.2,95 0.3,1.6 c -0.5,0.1 -1,0.2 -1.4,0.2 -0.7,0 -1.2,-0.1 -1.6,-0.3 -0.4,-0.2 -0.6,-0.5 -0.8,-0.8 -0.2,-0.3 -0.2,-1.1 -0.2,-2.2 v -6.3 h -1.4 v -1.4 h 1.4 v -2.7 l 1.8,-1.1 v 3.8 h 1.9 v 1.4 h -1.9 v 6.4 c 0,0.5 0,0.9 0.1,1 0.1,0.1 0.2,0.3 0.3,0.4 0.1,0.1 0.4,0.1 0.6,0.1 0.3,0 0.6,-0.1 0.9,-0.1 z"
   id="path17" />
	</g>
	
	<path
   class="st0"
   d="m 314.89049,150.46477 h -98.80001 c -5.6,0 -10.1,-4.50001 -10.1,-10.1 v -17.90001 c 0,-5.59999 4.5,-10.1 10.1,-10.1 h 98.90001 c 5.6,0 10.1,4.50001 10.1,10.1 v 17.90001 c -0.1,5.59999 -4.6,10.1 -10.2,10.1 z"
   id="path123-9-3-0-8-8"
   style="fill:#ececec" /><g
   id="g27"
   transform="translate(-131.64727,-69.195718)">
		<path
   d="m 387.2,203.9 1.8,-0.2 c 0,1.1 0.3,1.9 0.6,2.4 0.3,0.5 0.9,0.6 1.6,0.6 0.5,0 0.9,-0.1 1.3,-0.3 0.4,-0.2 0.6,-0.5 0.7,-0.9 0.1,-0.4 0.2,-1 0.2,-1.9 v -10.4 h 2 v 10.2 c 0,1.3 -0.2,2.2 -0.5,2.9 -0.3,0.7 -0.8,1.2 -1.4,1.6 -0.7,0.4 -1.4,0.5 -2.3,0.5 -1.3,0 -2.3,-0.4 -3,-1.1 -0.7,-0.8 -1,-1.9 -1,-3.4 z"
   id="path23" />
		<path
   d="m 398.1,203.3 1.9,-0.2 c 0.1,0.8 0.3,1.4 0.6,1.9 0.3,0.5 0.8,0.9 1.5,1.2 0.7,0.3 1.5,0.4 2.3,0.4 0.8,0 1.4,-0.1 2,-0.3 0.6,-0.2 1,-0.5 1.3,-0.9 0.3,-0.4 0.4,-0.8 0.4,-1.3 0,-0.5 -0.1,-0.9 -0.4,-1.2 -0.3,-0.4 -0.7,-0.6 -1.4,-0.9 -0.4,-0.2 -1.3,-0.4 -2.7,-0.7 -1.4,-0.3 -2.3,-0.6 -2.9,-0.9 -0.7,-0.4 -1.3,-0.8 -1.6,-1.4 -0.4,-0.6 -0.5,-1.2 -0.5,-1.9 0,-0.8 0.2,-1.5 0.6,-2.1 0.4,-0.7 1.1,-1.2 1.9,-1.5 0.8,-0.3 1.7,-0.5 2.8,-0.5 1.1,0 2.1,0.2 2.9,0.5 0.9,0.4 1.5,0.9 2,1.6 0.5,0.7 0.7,1.5 0.7,2.4 l -1.9,0.1 c -0.1,-1 -0.4,-1.7 -1,-2.2 -0.6,-0.5 -1.5,-0.7 -2.6,-0.7 -1.2,0 -2.1,0.2 -2.6,0.7 -0.6,0.4 -0.8,1 -0.8,1.6 0,0.5 0.2,1 0.6,1.3 0.4,0.3 1.4,0.7 3,1.1 1.6,0.4 2.7,0.7 3.3,1 0.9,0.4 1.5,0.9 1.9,1.5 0.4,0.6 0.6,1.3 0.6,2.1 0,0.8 -0.2,1.6 -0.7,2.3 -0.5,0.7 -1.1,1.3 -2,1.7 -0.9,0.4 -1.8,0.6 -2.9,0.6 -1.4,0 -2.5,-0.2 -3.4,-0.6 -0.9,-0.4 -1.6,-1 -2.2,-1.8 -0.4,-1 -0.7,-1.9 -0.7,-2.9 z"
   id="path25" />
	</g>
	
	<path
   class="st0"
   d="m 314.38515,58.430193 h -98.8 c -5.6,0 -10.1,-4.50001 -10.1,-10.1 v -17.90001 c 0,-5.59999 4.5,-10.1 10.1,-10.1 h 98.9 c 5.6,0 10.1,4.50001 10.1,10.1 v 17.90001 c -0.1,5.59999 -4.6,10.1 -10.2,10.1 z"
   id="path123-9-3-0"
   style="fill:#ececec" /><g
   id="g39"
   transform="translate(104,-110)"
   style="fill:#000000;fill-opacity:1">
		<path
   d="m 137.3,156.1 v -15 h 2 v 6.2 h 7.8 v -6.2 h 2 v 15 h -2 V 149 h -7.8 v 7.1 z"
   id="path31"
   style="fill:#000000;fill-opacity:1" />
		<path
   d="m 156.2,156.1 v -13.3 h -5 V 141 h 11.9 v 1.8 h -5 v 13.3 z"
   id="path33"
   style="fill:#000000;fill-opacity:1" />
		<path
   d="m 165.2,156.1 v -15 h 3 l 3.6,10.6 c 0.3,1 0.6,1.7 0.7,2.2 0.2,-0.5 0.4,-1.3 0.8,-2.4 l 3.6,-10.5 h 2.7 v 15 h -1.9 v -12.6 l -4.4,12.6 h -1.8 l -4.3,-12.8 V 156 h -2 z"
   id="path35"
   style="fill:#000000;fill-opacity:1" />
		<path
   d="m 182.7,156.1 v -15 h 2 v 13.3 h 7.4 v 1.8 h -9.4 z"
   id="path37"
   style="fill:#000000;fill-opacity:1" />
	</g>
	
	<path
   class="st0"
   d="m 313.82285,103.95735 h -98.8 c -5.6,0 -10.1,-4.500007 -10.1,-10.099997 v -17.90001 c 0,-5.59999 4.5,-10.1 10.1,-10.1 h 98.9 c 5.6,0 10.1,4.50001 10.1,10.1 v 17.90001 c -0.1,5.59999 -4.6,10.099997 -10.2,10.099997 z"
   id="path123-9-3-0-8"
   style="fill:#ececec" /><g
   id="g49"
   transform="translate(-24,-96)">
		<path
   d="m 280,183.9 2,0.5 c -0.4,1.6 -1.2,2.9 -2.3,3.7 -1.1,0.9 -2.4,1.3 -4,1.3 -1.6,0 -2.9,-0.3 -4,-1 -1,-0.7 -1.8,-1.6 -2.3,-2.9 -0.5,-1.3 -0.8,-2.6 -0.8,-4 0,-1.6 0.3,-2.9 0.9,-4.1 0.6,-1.2 1.4,-2.1 2.6,-2.7 1.1,-0.6 2.3,-0.9 3.6,-0.9 1.5,0 2.8,0.4 3.8,1.1 1,0.7 1.7,1.8 2.1,3.2 l -2,0.5 c -0.3,-1.1 -0.9,-1.9 -1.5,-2.4 -0.7,-0.5 -1.5,-0.7 -2.5,-0.7 -1.2,0 -2.1,0.3 -2.9,0.8 -0.8,0.6 -1.3,1.3 -1.6,2.2 -0.3,0.9 -0.5,1.9 -0.5,2.9 0,1.3 0.2,2.4 0.6,3.3 0.4,1 1,1.7 1.7,2.1 0.8,0.5 1.6,0.7 2.6,0.7 1.1,0 2.1,-0.3 2.8,-1 0.9,-0.4 1.4,-1.4 1.7,-2.6 z"
   id="path43" />
		<path
   d="m 283.7,184.3 1.9,-0.2 c 0.1,0.8 0.3,1.4 0.6,1.9 0.3,0.5 0.8,0.9 1.5,1.2 0.7,0.3 1.5,0.4 2.3,0.4 0.8,0 1.4,-0.1 2,-0.3 0.6,-0.2 1,-0.5 1.3,-0.9 0.3,-0.4 0.4,-0.8 0.4,-1.3 0,-0.5 -0.1,-0.9 -0.4,-1.2 -0.3,-0.4 -0.7,-0.6 -1.4,-0.9 -0.4,-0.2 -1.3,-0.4 -2.7,-0.7 -1.4,-0.3 -2.3,-0.6 -2.9,-0.9 -0.7,-0.4 -1.3,-0.8 -1.6,-1.4 -0.4,-0.6 -0.5,-1.2 -0.5,-1.9 0,-0.8 0.2,-1.5 0.6,-2.1 0.4,-0.7 1.1,-1.2 1.9,-1.5 0.8,-0.3 1.7,-0.5 2.8,-0.5 1.1,0 2.1,0.2 2.9,0.5 0.9,0.4 1.5,0.9 2,1.6 0.5,0.7 0.7,1.5 0.7,2.4 l -1.9,0.1 c -0.1,-1 -0.4,-1.7 -1,-2.2 -0.6,-0.5 -1.5,-0.7 -2.6,-0.7 -1.2,0 -2.1,0.2 -2.6,0.7 -0.6,0.4 -0.8,1 -0.8,1.6 0,0.5 0.2,1 0.6,1.3 0.4,0.3 1.4,0.7 3,1.1 1.6,0.4 2.7,0.7 3.3,1 0.9,0.4 1.5,0.9 1.9,1.5 0.4,0.6 0.6,1.3 0.6,2.1 0,0.8 -0.2,1.6 -0.7,2.3 -0.5,0.7 -1.1,1.3 -2,1.7 -0.9,0.4 -1.8,0.6 -2.9,0.6 -1.4,0 -2.5,-0.2 -3.4,-0.6 -0.9,-0.4 -1.6,-1 -2.2,-1.8 -0.4,-1 -0.6,-1.9 -0.7,-2.9 z"
   id="path45" />
		<path
   d="m 297.7,184.3 1.9,-0.2 c 0.1,0.8 0.3,1.4 0.6,1.9 0.3,0.5 0.8,0.9 1.5,1.2 0.7,0.3 1.5,0.4 2.3,0.4 0.8,0 1.4,-0.1 2,-0.3 0.6,-0.2 1,-0.5 1.3,-0.9 0.3,-0.4 0.4,-0.8 0.4,-1.3 0,-0.5 -0.1,-0.9 -0.4,-1.2 -0.3,-0.4 -0.7,-0.6 -1.4,-0.9 -0.4,-0.2 -1.3,-0.4 -2.7,-0.7 -1.4,-0.3 -2.3,-0.6 -2.9,-0.9 -0.7,-0.4 -1.3,-0.8 -1.6,-1.4 -0.4,-0.6 -0.5,-1.2 -0.5,-1.9 0,-0.8 0.2,-1.5 0.6,-2.1 0.4,-0.7 1.1,-1.2 1.9,-1.5 0.8,-0.3 1.7,-0.5 2.8,-0.5 1.1,0 2.1,0.2 2.9,0.5 0.8,0.4 1.5,0.9 2,1.6 0.5,0.7 0.7,1.5 0.7,2.4 l -1.9,0.1 c -0.1,-1 -0.5,-1.7 -1,-2.2 -0.6,-0.5 -1.5,-0.7 -2.6,-0.7 -1.2,0 -2.1,0.2 -2.6,0.7 -0.6,0.4 -0.8,1 -0.8,1.6 0,0.5 0.2,1 0.6,1.3 0.4,0.3 1.4,0.7 3,1.1 1.6,0.4 2.7,0.7 3.3,1 0.9,0.4 1.5,0.9 1.9,1.5 0.4,0.6 0.6,1.3 0.6,2.1 0,0.8 -0.2,1.6 -0.7,2.3 -0.5,0.7 -1.1,1.3 -2,1.7 -0.9,0.4 -1.8,0.6 -2.9,0.6 -1.4,0 -2.5,-0.2 -3.4,-0.6 -0.9,-0.4 -1.6,-1 -2.2,-1.8 -0.4,-1 -0.6,-1.9 -0.7,-2.9 z"
   id="path47" />
	</g>
	
	<path
   class="st0"
   d="m 488.39145,149.44144 h -98.80001 c -5.6,0 -10.1,-4.50001 -10.1,-10.1 v -17.90001 c 0,-5.59999 4.5,-10.1 10.1,-10.1 h 98.90002 c 5.6,0 10.1,4.50001 10.1,10.1 v 17.90001 c -0.1,5.59999 -4.6,10.1 -10.20001,10.1 z"
   id="path123-9-3-0-8-8-5-5-6"
   style="fill:#ececec" /><g
   id="g65"
   transform="translate(149.4812,21.069997)">
		<path
   d="m 258.3,115.1 v -15 h 5.7 c 1,0 1.8,0 2.3,0.1 0.7,0.1 1.4,0.4 1.9,0.7 0.5,0.3 0.9,0.8 1.2,1.5 0.3,0.7 0.5,1.3 0.5,2.1 0,1.3 -0.4,2.4 -1.2,3.2 -0.8,0.9 -2.3,1.3 -4.4,1.3 h -3.9 v 6.1 z m 1.9,-7.8 h 3.9 c 1.3,0 2.2,-0.2 2.7,-0.7 0.5,-0.5 0.8,-1.2 0.8,-2 0,-0.6 -0.2,-1.2 -0.5,-1.6 -0.3,-0.4 -0.7,-0.7 -1.3,-0.9 -0.3,-0.1 -1,-0.1 -1.9,-0.1 h -3.8 v 5.3 z"
   id="path53" />
		<path
   d="m 271.9,119.3 -0.2,-1.7 c 0.4,0.1 0.8,0.2 1.1,0.2 0.4,0 0.7,-0.1 1,-0.2 0.3,-0.1 0.4,-0.3 0.6,-0.6 0.1,-0.2 0.3,-0.6 0.6,-1.4 0,-0.1 0.1,-0.3 0.2,-0.5 l -4.1,-10.9 h 2 l 2.3,6.3 c 0.3,0.8 0.6,1.6 0.8,2.5 0.2,-0.8 0.5,-1.7 0.8,-2.5 l 2.3,-6.3 h 1.8 l -4.1,11.1 c -0.4,1.2 -0.8,2 -1,2.5 -0.3,0.6 -0.7,1.1 -1.1,1.3 -0.4,0.3 -0.9,0.4 -1.5,0.4 -0.6,0.1 -1,0 -1.5,-0.2 z"
   id="path55" />
		<path
   d="m 286.6,113.5 0.3,1.6 c -0.5,0.1 -1,0.2 -1.4,0.2 -0.7,0 -1.2,-0.1 -1.6,-0.3 -0.4,-0.2 -0.6,-0.5 -0.8,-0.8 -0.2,-0.3 -0.2,-1.1 -0.2,-2.2 v -6.3 h -1.4 v -1.4 h 1.4 v -2.7 l 1.8,-1.1 v 3.8 h 1.9 v 1.4 h -1.9 v 6.4 c 0,0.5 0,0.9 0.1,1 0.1,0.1 0.2,0.3 0.3,0.4 0.1,0.1 0.4,0.1 0.6,0.1 0.2,0 0.5,-0.1 0.9,-0.1 z"
   id="path57" />
		<path
   d="m 288.4,115.1 v -15 h 1.8 v 5.4 c 0.9,-1 1.9,-1.5 3.3,-1.5 0.8,0 1.5,0.2 2.1,0.5 0.6,0.3 1,0.8 1.3,1.3 0.3,0.6 0.4,1.4 0.4,2.4 v 6.9 h -1.8 v -6.9 c 0,-0.9 -0.2,-1.6 -0.6,-2 -0.4,-0.4 -1,-0.6 -1.7,-0.6 -0.5,0 -1.1,0.1 -1.5,0.4 -0.5,0.3 -0.8,0.7 -1,1.2 -0.2,0.5 -0.3,1.2 -0.3,2 v 6 h -2 z"
   id="path59" />
		<path
   d="m 299.3,109.7 c 0,-2 0.6,-3.5 1.7,-4.5 0.9,-0.8 2.1,-1.2 3.4,-1.2 1.5,0 2.7,0.5 3.7,1.5 1,1 1.4,2.3 1.4,4.1 0,1.4 -0.2,2.5 -0.6,3.3 -0.4,0.8 -1,1.4 -1.8,1.9 -0.8,0.4 -1.7,0.7 -2.6,0.7 -1.5,0 -2.8,-0.5 -3.7,-1.5 -0.9,-1 -1.5,-2.5 -1.5,-4.3 z m 1.9,0 c 0,1.4 0.3,2.4 0.9,3.1 0.6,0.7 1.4,1 2.3,1 0.9,0 1.7,-0.3 2.3,-1 0.6,-0.7 0.9,-1.8 0.9,-3.2 0,-1.3 -0.3,-2.4 -0.9,-3.1 -0.6,-0.7 -1.4,-1 -2.3,-1 -0.9,0 -1.7,0.3 -2.3,1 -0.6,0.8 -0.9,1.8 -0.9,3.2 z"
   id="path61" />
		<path
   d="m 311.7,115.1 v -10.9 h 1.7 v 1.5 c 0.8,-1.2 2,-1.8 3.5,-1.8 0.7,0 1.3,0.1 1.8,0.4 0.5,0.2 1,0.5 1.2,0.9 0.2,0.4 0.5,0.8 0.6,1.4 0.1,0.3 0.1,0.9 0.1,1.8 v 6.7 h -1.8 v -6.6 c 0,-0.8 -0.1,-1.3 -0.2,-1.7 -0.1,-0.4 -0.4,-0.7 -0.8,-0.9 -0.4,-0.2 -0.8,-0.3 -1.3,-0.3 -0.8,0 -1.5,0.2 -2,0.7 -0.5,0.5 -0.9,1.4 -0.9,2.8 v 5.9 h -1.9 z"
   id="path63" />
	</g>
	
	<path
   class="st0"
   d="m 488.39146,103.32203 h -98.80001 c -5.6,0 -10.1,-4.50001 -10.1,-10.1 V 75.322016 c 0,-5.59999 4.5,-10.1 10.1,-10.1 h 98.90001 c 5.6,0 10.1,4.50001 10.1,10.1 V 93.22203 c -0.1,5.59999 -4.6,10.1 -10.2,10.1 z"
   id="path123-9-3-0-8-8-5-5"
   style="fill:#ececec" /><g
   id="g75"
   transform="translate(30.976668,-36.398573)">
		<path
   d="m 387.9,123.1 1.9,-0.2 c 0.1,0.8 0.3,1.4 0.6,1.9 0.3,0.5 0.8,0.9 1.5,1.2 0.7,0.3 1.5,0.4 2.3,0.4 0.8,0 1.4,-0.1 2,-0.3 0.6,-0.2 1,-0.5 1.3,-0.9 0.3,-0.4 0.4,-0.8 0.4,-1.3 0,-0.5 -0.1,-0.9 -0.4,-1.2 -0.3,-0.3 -0.7,-0.6 -1.4,-0.9 -0.4,-0.2 -1.3,-0.4 -2.7,-0.7 -1.4,-0.3 -2.3,-0.6 -2.9,-0.9 -0.7,-0.4 -1.3,-0.8 -1.6,-1.4 -0.4,-0.6 -0.5,-1.2 -0.5,-1.9 0,-0.8 0.2,-1.5 0.6,-2.1 0.4,-0.7 1.1,-1.2 1.9,-1.5 0.8,-0.3 1.7,-0.5 2.8,-0.5 1.1,0 2.1,0.2 2.9,0.5 0.9,0.4 1.5,0.9 2,1.6 0.5,0.7 0.7,1.5 0.7,2.4 l -1.9,0.1 c -0.1,-1 -0.4,-1.7 -1,-2.2 -0.6,-0.5 -1.5,-0.7 -2.6,-0.7 -1.2,0 -2.1,0.2 -2.6,0.7 -0.6,0.4 -0.8,1 -0.8,1.6 0,0.5 0.2,1 0.6,1.3 0.4,0.3 1.4,0.7 3,1.1 1.6,0.4 2.7,0.7 3.3,1 0.9,0.4 1.5,0.9 1.9,1.5 0.4,0.6 0.6,1.3 0.6,2.1 0,0.8 -0.2,1.6 -0.7,2.3 -0.5,0.7 -1.1,1.3 -2,1.7 -0.9,0.4 -1.8,0.6 -2.9,0.6 -1.4,0 -2.5,-0.2 -3.4,-0.6 -0.9,-0.4 -1.6,-1 -2.2,-1.8 -0.4,-1 -0.6,-1.9 -0.7,-2.9 z"
   id="path69" />
		<path
   d="m 414,126.3 c 0.9,0.6 1.8,1.1 2.6,1.4 l -0.6,1.4 c -1.1,-0.4 -2.2,-1 -3.2,-1.8 -1.1,0.6 -2.3,0.9 -3.7,0.9 -1.4,0 -2.6,-0.3 -3.7,-1 -1.1,-0.7 -2,-1.6 -2.6,-2.8 -0.6,-1.2 -0.9,-2.5 -0.9,-4 0,-1.5 0.3,-2.8 0.9,-4.1 0.6,-1.3 1.5,-2.1 2.6,-2.8 1.1,-0.6 2.4,-1 3.7,-1 1.4,0 2.6,0.3 3.8,1 1.1,0.7 2,1.6 2.5,2.8 0.6,1.2 0.9,2.5 0.9,4 0,1.2 -0.2,2.4 -0.6,3.3 -0.4,1.1 -0.9,2 -1.7,2.7 z m -4.4,-2.5 c 1.1,0.3 2.1,0.8 2.8,1.4 1.2,-1.1 1.8,-2.7 1.8,-4.8 0,-1.2 -0.2,-2.3 -0.6,-3.2 -0.4,-0.9 -1,-1.6 -1.8,-2.1 -0.8,-0.5 -1.7,-0.8 -2.7,-0.8 -1.5,0 -2.7,0.5 -3.7,1.5 -1,1 -1.5,2.5 -1.5,4.5 0,2 0.5,3.5 1.5,4.5 1,1 2.2,1.6 3.7,1.6 0.7,0 1.4,-0.1 2,-0.4 -0.6,-0.4 -1.3,-0.7 -2,-0.9 z"
   id="path71" />
		<path
   d="m 418.9,127.9 v -15 h 2 v 13.3 h 7.4 v 1.8 h -9.4 z"
   id="path73" />
	</g>
	
	
	
	<path
   class="st0"
   d="M 145.13275,59.388662 H 46.332747 c -5.6,0 -10.1,-4.50001 -10.1,-10.1 v -17.90001 c 0,-5.59999 4.5,-10.1 10.1,-10.1 h 98.900003 c 5.6,0 10.1,4.50001 10.1,10.1 v 17.90001 c -0.1,5.59999 -4.6,10.1 -10.2,10.1 z"
   id="path123-9-3"
   style="fill:#ececec" /><g
   id="g121"
   transform="translate(-164,8)">
		<path
   d="m 238.5,24.9 h 2 v 8.7 c 0,1.5 -0.2,2.7 -0.5,3.6 -0.3,0.9 -1,1.6 -1.9,2.2 -0.9,0.6 -2.1,0.8 -3.5,0.8 -1.4,0 -2.6,-0.2 -3.5,-0.7 -0.9,-0.5 -1.5,-1.2 -1.9,-2.1 -0.4,-0.9 -0.6,-2.2 -0.6,-3.8 v -8.7 h 2 v 8.7 c 0,1.3 0.1,2.3 0.4,2.9 0.2,0.6 0.7,1.1 1.3,1.4 0.6,0.3 1.3,0.5 2.2,0.5 1.5,0 2.5,-0.3 3.1,-1 0.6,-0.7 0.9,-1.9 0.9,-3.8 z"
   id="path109" />
		<path
   d="m 243.6,27 v -2.1 h 1.8 V 27 Z m 0,12.9 V 29.1 h 1.8 V 40 h -1.8 z"
   id="path111" />
		<path
   d="m 248.5,39.9 v -15 h 5.7 c 1,0 1.8,0 2.3,0.1 0.7,0.1 1.4,0.4 1.9,0.7 0.5,0.3 0.9,0.8 1.2,1.5 0.3,0.6 0.5,1.3 0.5,2.1 0,1.3 -0.4,2.4 -1.2,3.2 -0.8,0.9 -2.3,1.3 -4.4,1.3 h -3.9 v 6.1 z m 1.9,-7.8 h 3.9 c 1.3,0 2.2,-0.2 2.7,-0.7 0.5,-0.5 0.8,-1.2 0.8,-2 0,-0.6 -0.2,-1.2 -0.5,-1.6 -0.3,-0.4 -0.7,-0.7 -1.3,-0.9 -0.3,-0.1 -1,-0.1 -1.9,-0.1 h -3.8 v 5.3 z"
   id="path113" />
		<path
   d="m 269.3,38.6 c -0.7,0.6 -1.3,1 -2,1.2 -0.6,0.2 -1.3,0.4 -2,0.4 -1.2,0 -2.1,-0.3 -2.8,-0.9 -0.6,-0.6 -1,-1.3 -1,-2.2 0,-0.5 0.1,-1 0.4,-1.5 0.2,-0.4 0.6,-0.8 1,-1.1 0.4,-0.3 0.8,-0.5 1.3,-0.6 0.4,-0.1 0.9,-0.2 1.6,-0.3 1.5,-0.2 2.6,-0.4 3.3,-0.6 0,-0.3 0,-0.4 0,-0.5 0,-0.8 -0.2,-1.3 -0.5,-1.6 -0.5,-0.4 -1.2,-0.6 -2.1,-0.6 -0.9,0 -1.5,0.2 -1.9,0.5 -0.4,0.3 -0.7,0.8 -0.9,1.6 l -1.8,-0.2 c 0.2,-0.8 0.4,-1.4 0.8,-1.9 0.4,-0.5 0.9,-0.8 1.6,-1.1 0.7,-0.3 1.5,-0.4 2.5,-0.4 0.9,0 1.7,0.1 2.3,0.3 0.6,0.2 1,0.5 1.3,0.8 0.3,0.3 0.5,0.8 0.6,1.3 0.1,0.3 0.1,0.9 0.1,1.7 v 2.5 c 0,1.7 0,2.8 0.1,3.3 0.1,0.5 0.2,0.9 0.5,1.3 h -1.9 c -0.3,-0.4 -0.4,-0.9 -0.5,-1.4 z m -0.1,-4.1 c -0.7,0.3 -1.7,0.5 -3,0.7 -0.8,0.1 -1.3,0.2 -1.6,0.4 -0.3,0.2 -0.6,0.3 -0.7,0.6 -0.2,0.3 -0.3,0.6 -0.3,0.9 0,0.5 0.2,0.9 0.6,1.2 0.4,0.3 0.9,0.5 1.6,0.5 0.7,0 1.3,-0.2 1.9,-0.5 0.6,-0.3 1,-0.7 1.2,-1.3 0.2,-0.4 0.3,-1 0.3,-1.8 z"
   id="path115" />
		<path
   d="m 277.9,38.3 0.3,1.6 c -0.5,0.1 -1,0.2 -1.4,0.2 -0.7,0 -1.2,-0.1 -1.6,-0.3 -0.4,-0.2 -0.6,-0.5 -0.8,-0.8 -0.2,-0.3 -0.2,-1.1 -0.2,-2.2 v -6.3 h -1.4 v -1.4 h 1.4 v -2.7 l 1.8,-1.1 v 3.8 h 1.9 v 1.4 H 276 v 6.4 c 0,0.5 0,0.9 0.1,1 0.1,0.2 0.2,0.3 0.3,0.4 0.1,0.1 0.4,0.1 0.6,0.1 0.3,0 0.6,-0.1 0.9,-0.1 z"
   id="path117" />
		<path
   d="m 279.7,39.9 v -15 h 1.8 v 5.4 c 0.9,-1 1.9,-1.5 3.3,-1.5 0.8,0 1.5,0.2 2.1,0.5 0.6,0.3 1,0.8 1.3,1.3 0.3,0.6 0.4,1.4 0.4,2.4 v 6.9 h -1.8 V 33 c 0,-0.9 -0.2,-1.6 -0.6,-2 -0.4,-0.4 -1,-0.6 -1.7,-0.6 -0.5,0 -1.1,0.1 -1.5,0.4 -0.5,0.3 -0.8,0.7 -1,1.2 -0.2,0.5 -0.3,1.2 -0.3,2 v 6 h -2 z"
   id="path119" />
	</g>
	<path
   class="st0"
   d="m 663.41002,57.43261 h -98.8 c -5.6,0 -10.1,-4.5 -10.1,-10.1 v -17.9 c 0,-5.6 4.5,-10.1 10.1,-10.1 h 98.9 c 5.6,0 10.1,4.5 10.1,10.1 v 17.9 c -0.1,5.6 -4.6,10.1 -10.2,10.1 z"
   id="path123" />
	<g
   id="g147"
   transform="translate(492.51002,-175.56739)">
		<path
   d="m 79,220.9 v -15 h 2 v 15 z"
   id="path125" />
		<path
   d="m 84.2,220.9 v -15 H 86 v 15 z"
   id="path127" />
		<path
   d="m 88.8,220.9 v -15 h 1.8 v 15 z"
   id="path129" />
		<path
   d="m 100.7,220.9 v -1.6 c -0.8,1.2 -2,1.8 -3.5,1.8 -0.6,0 -1.2,-0.1 -1.8,-0.4 -0.6,-0.2 -1,-0.6 -1.2,-0.9 -0.3,-0.4 -0.5,-0.8 -0.6,-1.4 -0.1,-0.4 -0.1,-0.9 -0.1,-1.7 V 210 h 1.8 v 6 c 0,1 0,1.6 0.1,1.9 0.1,0.5 0.4,0.9 0.7,1.1 0.4,0.3 0.8,0.4 1.4,0.4 0.6,0 1.1,-0.1 1.6,-0.4 0.5,-0.3 0.8,-0.7 1,-1.2 0.2,-0.5 0.3,-1.2 0.3,-2.1 v -5.8 h 1.8 v 10.9 h -1.5 z"
   id="path131" />
		<path
   d="m 104.5,217.7 1.8,-0.3 c 0.1,0.7 0.4,1.3 0.9,1.7 0.5,0.4 1.1,0.6 2,0.6 0.8,0 1.5,-0.2 1.9,-0.5 0.4,-0.3 0.6,-0.8 0.6,-1.2 0,-0.4 -0.2,-0.7 -0.5,-1 -0.3,-0.2 -0.9,-0.4 -1.9,-0.6 -1.4,-0.3 -2.3,-0.6 -2.8,-0.9 -0.5,-0.2 -0.9,-0.6 -1.2,-1 -0.3,-0.4 -0.4,-0.9 -0.4,-1.5 0,-0.5 0.1,-0.9 0.3,-1.3 0.2,-0.4 0.5,-0.8 0.9,-1 0.3,-0.2 0.7,-0.4 1.2,-0.5 0.5,-0.1 1,-0.2 1.6,-0.2 0.9,0 1.6,0.1 2.3,0.4 0.6,0.2 1.1,0.6 1.4,1 0.3,0.4 0.5,1 0.6,1.7 l -1.8,0.2 c -0.1,-0.6 -0.3,-1 -0.7,-1.3 -0.4,-0.3 -0.9,-0.5 -1.7,-0.5 -0.8,0 -1.5,0.1 -1.8,0.4 -0.3,0.3 -0.5,0.6 -0.5,1 0,0.2 0.1,0.5 0.2,0.6 0.2,0.2 0.4,0.4 0.7,0.5 0.2,0.1 0.7,0.2 1.6,0.5 1.3,0.3 2.2,0.6 2.7,0.9 0.5,0.2 0.9,0.5 1.2,1 0.3,0.5 0.4,1 0.4,1.6 0,0.6 -0.2,1.2 -0.5,1.7 -0.4,0.5 -0.9,1 -1.6,1.3 -0.7,0.3 -1.4,0.4 -2.3,0.4 -1.4,0 -2.5,-0.3 -3.2,-0.9 -0.7,-0.8 -1.2,-1.6 -1.4,-2.8 z"
   id="path133" />
		<path
   d="m 119.8,219.3 0.3,1.6 c -0.5,0.1 -1,0.2 -1.4,0.2 -0.7,0 -1.2,-0.1 -1.6,-0.3 -0.4,-0.2 -0.6,-0.5 -0.8,-0.8 -0.2,-0.3 -0.2,-1.1 -0.2,-2.2 v -6.3 h -1.4 v -1.4 h 1.4 v -2.7 l 1.8,-1.1 v 3.8 h 1.9 v 1.4 h -1.9 v 6.4 c 0,0.5 0,0.9 0.1,1 0.1,0.2 0.2,0.3 0.3,0.4 0.1,0.1 0.4,0.1 0.6,0.1 0.3,0 0.5,-0.1 0.9,-0.1 z"
   id="path135" />
		<path
   d="M 121.5,220.9 V 210 h 1.7 v 1.7 c 0.4,-0.8 0.8,-1.3 1.2,-1.5 0.4,-0.2 0.8,-0.4 1.2,-0.4 0.6,0 1.3,0.2 1.9,0.6 l -0.6,1.7 c -0.5,-0.3 -0.9,-0.4 -1.4,-0.4 -0.4,0 -0.8,0.1 -1.1,0.4 -0.3,0.2 -0.6,0.6 -0.7,1 -0.2,0.7 -0.3,1.4 -0.3,2.2 v 5.7 h -1.9 z"
   id="path137" />
		<path
   d="m 135.7,219.6 c -0.7,0.6 -1.3,1 -2,1.2 -0.6,0.2 -1.3,0.4 -2,0.4 -1.2,0 -2.1,-0.3 -2.8,-0.9 -0.7,-0.6 -1,-1.3 -1,-2.2 0,-0.5 0.1,-1 0.4,-1.5 0.2,-0.4 0.6,-0.8 1,-1.1 0.4,-0.3 0.8,-0.5 1.3,-0.6 0.4,-0.1 0.9,-0.2 1.6,-0.3 1.5,-0.2 2.6,-0.4 3.3,-0.6 0,-0.3 0,-0.4 0,-0.5 0,-0.8 -0.2,-1.3 -0.5,-1.6 -0.5,-0.4 -1.2,-0.6 -2.1,-0.6 -0.9,0 -1.5,0.2 -1.9,0.5 -0.4,0.3 -0.7,0.8 -0.9,1.6 l -1.8,-0.2 c 0.2,-0.8 0.4,-1.4 0.8,-1.9 0.4,-0.5 0.9,-0.8 1.6,-1.1 0.7,-0.3 1.5,-0.4 2.5,-0.4 0.9,0 1.7,0.1 2.3,0.3 0.6,0.2 1,0.5 1.3,0.8 0.3,0.3 0.5,0.8 0.6,1.3 0.1,0.3 0.1,0.9 0.1,1.7 v 2.5 c 0,1.7 0,2.8 0.1,3.3 0.1,0.5 0.2,0.9 0.5,1.3 H 136 c -0.2,-0.4 -0.3,-0.9 -0.3,-1.4 z m -0.2,-4.1 c -0.7,0.3 -1.7,0.5 -3,0.7 -0.8,0.1 -1.3,0.2 -1.6,0.4 -0.3,0.2 -0.6,0.3 -0.7,0.6 -0.2,0.3 -0.3,0.6 -0.3,0.9 0,0.5 0.2,0.9 0.6,1.2 0.4,0.3 0.9,0.5 1.6,0.5 0.7,0 1.3,-0.2 1.9,-0.5 0.6,-0.3 1,-0.7 1.2,-1.3 0.2,-0.4 0.3,-1 0.3,-1.8 z"
   id="path139" />
		<path
   d="m 144.3,219.3 0.3,1.6 c -0.5,0.1 -1,0.2 -1.4,0.2 -0.7,0 -1.2,-0.1 -1.6,-0.3 -0.4,-0.2 -0.6,-0.5 -0.8,-0.8 -0.2,-0.3 -0.2,-1.1 -0.2,-2.2 v -6.3 h -1.4 v -1.4 h 1.4 v -2.7 l 1.8,-1.1 v 3.8 h 1.9 v 1.4 h -1.9 v 6.4 c 0,0.5 0,0.9 0.1,1 0.1,0.2 0.2,0.3 0.3,0.4 0.1,0.1 0.4,0.1 0.6,0.1 0.3,0 0.5,-0.1 0.9,-0.1 z"
   id="path141" />
		<path
   d="m 145.4,215.5 c 0,-2 0.6,-3.5 1.7,-4.5 0.9,-0.8 2.1,-1.2 3.4,-1.2 1.5,0 2.7,0.5 3.7,1.5 1,1 1.4,2.3 1.4,4.1 0,1.4 -0.2,2.5 -0.6,3.3 -0.4,0.8 -1,1.4 -1.8,1.9 -0.8,0.4 -1.7,0.7 -2.6,0.7 -1.5,0 -2.8,-0.5 -3.7,-1.5 -1,-1 -1.5,-2.5 -1.5,-4.3 z m 1.9,0 c 0,1.4 0.3,2.4 0.9,3.1 0.6,0.7 1.4,1 2.3,1 0.9,0 1.7,-0.3 2.3,-1 0.6,-0.7 0.9,-1.8 0.9,-3.2 0,-1.3 -0.3,-2.4 -0.9,-3.1 -0.6,-0.7 -1.4,-1 -2.3,-1 -0.9,0 -1.7,0.3 -2.3,1 -0.6,0.8 -0.9,1.8 -0.9,3.2 z"
   id="path143" />
		<path
   d="M 157.7,220.9 V 210 h 1.7 v 1.7 c 0.4,-0.8 0.8,-1.3 1.2,-1.5 0.4,-0.2 0.8,-0.4 1.2,-0.4 0.6,0 1.3,0.2 1.9,0.6 l -0.6,1.7 c -0.5,-0.3 -0.9,-0.4 -1.4,-0.4 -0.4,0 -0.8,0.1 -1.1,0.4 -0.3,0.2 -0.6,0.6 -0.7,1 -0.2,0.7 -0.3,1.4 -0.3,2.2 v 5.7 h -1.9 z"
   id="path145" />
	</g>
<path
   class="st0"
   d="m 488.35824,57.003343 h -98.80001 c -5.6,0 -10.1,-4.50001 -10.1,-10.1 v -17.90001 c 0,-5.59999 4.5,-10.1 10.1,-10.1 h 98.90001 c 5.6,0 10.1,4.50001 10.1,10.1 v 17.90001 c -0.1,5.59999 -4.6,10.1 -10.2,10.1 z"
   id="path123-9-3-0-8-8-5"
   style="fill:#ececec" /></g>
<text
   xml:space="preserve"
   id="text3444"
   style="font-size:21.3333px;line-height:1.25;font-family:sans-serif;white-space:pre;shape-inside:url(#rect3446)"
   transform="translate(30,-4)"><tspan
     x="386.98828"
     y="48.358642"
     id="tspan42512"><tspan
       style="font-family:Arial;-inkscape-font-specification:Arial"
       id="tspan42510">PBI</tspan></tspan></text><rect
   style="fill:#d6e5fa;fill-opacity:1;stroke-width:10"
   id="rect27844"
   width="3.0498216"
   height="133.5144"
   x="172.48436"
   y="21.348751"
   ry="1.5249108" /><rect
   style="fill:#d6e5fa;fill-opacity:1;stroke-width:10"
   id="rect27844-3"
   width="3.0498216"
   height="133.5144"
   x="346.79926"
   y="19.993279"
   ry="1.5249108" /><rect
   style="fill:#d6e5fa;fill-opacity:1;stroke-width:10"
   id="rect27844-3-8"
   width="3.0498216"
   height="133.5144"
   x="523.01117"
   y="20.026495"
   ry="1.5249108" /></svg>
