<?xml version="1.0" encoding="utf-8"?>
<!-- Generator: Adobe Illustrator 25.2.1, SVG Export Plug-In . SVG Version: 6.00 Build 0)  -->
<svg version="1.1"
	 id="svg150" sodipodi:docname="skills.svg" xmlns:inkscape="http://www.inkscape.org/namespaces/inkscape" xmlns:sodipodi="http://sodipodi.sourceforge.net/DTD/sodipodi-0.dtd" xmlns:svg="http://www.w3.org/2000/svg"
	 xmlns="http://www.w3.org/2000/svg" xmlns:xlink="http://www.w3.org/1999/xlink" x="0px" y="0px" viewBox="0 0 700 250"
	 style="enable-background:new 0 0 700 250;" xml:space="preserve">
<style type="text/css">
	.st0{fill:#ECECEC;}
	.st1{enable-background:new    ;}
</style>
<sodipodi:namedview  bordercolor="#999999" borderopacity="1" id="namedview152" inkscape:current-layer="text" inkscape:cx="522.19723" inkscape:cy="-127.0759" inkscape:pagecheckerboard="0" inkscape:pageopacity="0" inkscape:pageshadow="0" inkscape:window-height="1001" inkscape:window-maximized="1" inkscape:window-width="1920" inkscape:window-x="-9" inkscape:window-y="-9" inkscape:zoom="1.4754962" pagecolor="#ffffff" showgrid="false">
	</sodipodi:namedview>
<g id="text" transform="translate(-4)">
	<path id="path123-9" class="st0" d="M145.1,106H46.3c-5.6,0-10.1-4.5-10.1-10.1V78c0-5.6,4.5-10.1,10.1-10.1h98.9
		c5.6,0,10.1,4.5,10.1,10.1v17.9C155.2,101.5,150.7,106,145.1,106L145.1,106z"/>
	<g id="g19" transform="translate(-42.083067,-1.5207668)">
		<path id="path7" d="M110,96.6l-5.8-15h2.2l3.9,10.9c0.3,0.9,0.6,1.7,0.8,2.5c0.2-0.8,0.5-1.6,0.8-2.5l4.1-10.9h2l-5.9,15H110z"/>
		<path id="path9" d="M119.7,96.6v-15h5.6c1.1,0,2.1,0.2,2.8,0.5s1.2,0.8,1.6,1.4c0.4,0.6,0.6,1.3,0.6,2c0,0.6-0.2,1.2-0.5,1.8
			c-0.3,0.6-0.9,1-1.6,1.4c0.9,0.3,1.6,0.7,2.1,1.4c0.5,0.6,0.7,1.4,0.7,2.3c0,0.7-0.1,1.4-0.4,2c-0.3,0.6-0.7,1.1-1.1,1.4
			c-0.4,0.3-1,0.6-1.6,0.7c-0.7,0.2-1.5,0.3-2.4,0.3h-5.8V96.6z M121.7,87.9h3.3c0.9,0,1.5-0.1,1.9-0.2c0.5-0.2,0.9-0.4,1.1-0.7
			c0.3-0.3,0.4-0.8,0.4-1.3s-0.1-0.9-0.4-1.3c-0.2-0.4-0.6-0.6-1-0.8c-0.4-0.2-1.2-0.2-2.3-0.2h-3L121.7,87.9z M121.7,94.9h3.7
			c0.6,0,1.1,0,1.4-0.1c0.5-0.1,0.8-0.2,1.1-0.4c0.3-0.2,0.6-0.5,0.8-0.8c0.2-0.4,0.3-0.8,0.3-1.3c0-0.6-0.1-1-0.4-1.5
			c-0.3-0.4-0.7-0.7-1.2-0.9c-0.5-0.2-1.2-0.3-2.2-0.3h-3.5L121.7,94.9z"/>
		<path id="path11" d="M134.1,96.6v-2.1h2.1v2.1H134.1z"/>
		<path id="path13" d="M139.6,96.6v-15h2l7.9,11.8V81.6h1.9v15h-2l-7.9-11.8v11.8H139.6z"/>
		<path id="path15" d="M162,93.1l1.9,0.2c-0.3,1.1-0.9,2-1.7,2.6s-1.9,0.9-3.1,0.9c-1.6,0-2.9-0.5-3.8-1.5c-0.9-1-1.4-2.4-1.4-4.1
			c0-1.8,0.5-3.3,1.4-4.3s2.2-1.5,3.7-1.5s2.6,0.5,3.6,1.5s1.4,2.4,1.4,4.2c0,0.1,0,0.3,0,0.5h-8.1c0.1,1.2,0.4,2.1,1,2.7
			s1.4,1,2.3,1c0.7,0,1.3-0.2,1.7-0.5S161.7,93.9,162,93.1L162,93.1z M155.9,90.2h6.1c-0.1-0.9-0.3-1.6-0.7-2.1
			c-0.6-0.7-1.4-1.1-2.3-1.1c-0.8,0-1.6,0.3-2.1,0.9S156,89.2,155.9,90.2z"/>
		<path id="path17" d="M170.2,95l0.3,1.6c-0.5,0.1-1,0.2-1.4,0.2c-0.7,0-1.2-0.1-1.6-0.3c-0.4-0.2-0.6-0.5-0.8-0.8s-0.2-1.1-0.2-2.2
			v-6.3h-1.4v-1.4h1.4v-2.7l1.8-1.1v3.8h1.9v1.4h-1.9v6.4c0,0.5,0,0.9,0.1,1s0.2,0.3,0.3,0.4s0.4,0.1,0.6,0.1
			C169.6,95.1,169.9,95,170.2,95L170.2,95z"/>
	</g>
	<path id="path123-9-3-0-8-8" class="st0" d="M314.9,150.5h-98.8c-5.6,0-10.1-4.5-10.1-10.1v-17.9c0-5.6,4.5-10.1,10.1-10.1H315
		c5.6,0,10.1,4.5,10.1,10.1v17.9C325,146,320.5,150.5,314.9,150.5L314.9,150.5z"/>
	<g id="g27" transform="translate(-131.64727,-69.195718)">
		<path id="path23" d="M387.2,203.9l1.8-0.2c0,1.1,0.3,1.9,0.6,2.4c0.3,0.5,0.9,0.6,1.6,0.6c0.5,0,0.9-0.1,1.3-0.3s0.6-0.5,0.7-0.9
			s0.2-1,0.2-1.9v-10.4h2v10.2c0,1.3-0.2,2.2-0.5,2.9s-0.8,1.2-1.4,1.6c-0.7,0.4-1.4,0.5-2.3,0.5c-1.3,0-2.3-0.4-3-1.1
			C387.5,206.5,387.2,205.4,387.2,203.9L387.2,203.9z"/>
		<path id="path25" d="M398.1,203.3l1.9-0.2c0.1,0.8,0.3,1.4,0.6,1.9c0.3,0.5,0.8,0.9,1.5,1.2s1.5,0.4,2.3,0.4s1.4-0.1,2-0.3
			s1-0.5,1.3-0.9s0.4-0.8,0.4-1.3s-0.1-0.9-0.4-1.2c-0.3-0.4-0.7-0.6-1.4-0.9c-0.4-0.2-1.3-0.4-2.7-0.7c-1.4-0.3-2.3-0.6-2.9-0.9
			c-0.7-0.4-1.3-0.8-1.6-1.4c-0.4-0.6-0.5-1.2-0.5-1.9c0-0.8,0.2-1.5,0.6-2.1c0.4-0.7,1.1-1.2,1.9-1.5s1.7-0.5,2.8-0.5
			c1.1,0,2.1,0.2,2.9,0.5c0.9,0.4,1.5,0.9,2,1.6c0.5,0.7,0.7,1.5,0.7,2.4l-1.9,0.1c-0.1-1-0.4-1.7-1-2.2s-1.5-0.7-2.6-0.7
			c-1.2,0-2.1,0.2-2.6,0.7c-0.6,0.4-0.8,1-0.8,1.6c0,0.5,0.2,1,0.6,1.3s1.4,0.7,3,1.1c1.6,0.4,2.7,0.7,3.3,1
			c0.9,0.4,1.5,0.9,1.9,1.5s0.6,1.3,0.6,2.1s-0.2,1.6-0.7,2.3s-1.1,1.3-2,1.7s-1.8,0.6-2.9,0.6c-1.4,0-2.5-0.2-3.4-0.6
			c-0.9-0.4-1.6-1-2.2-1.8C398.4,205.2,398.1,204.3,398.1,203.3L398.1,203.3z"/>
	</g>
	<path id="path123-9-3-0" class="st0" d="M314.4,58.4h-98.8c-5.6,0-10.1-4.5-10.1-10.1V30.4c0-5.6,4.5-10.1,10.1-10.1h98.9
		c5.6,0,10.1,4.5,10.1,10.1v17.9C324.5,53.9,320,58.4,314.4,58.4z"/>
	<g id="g39" transform="translate(104,-110)">
		<path id="path31" d="M137.3,156.1v-15h2v6.2h7.8v-6.2h2v15h-2V149h-7.8v7.1H137.3z"/>
		<path id="path33" d="M156.2,156.1v-13.3h-5V141h11.9v1.8h-5v13.3H156.2z"/>
		<path id="path35" d="M165.2,156.1v-15h3l3.6,10.6c0.3,1,0.6,1.7,0.7,2.2c0.2-0.5,0.4-1.3,0.8-2.4l3.6-10.5h2.7v15h-1.9v-12.6
			l-4.4,12.6h-1.8l-4.3-12.8V156h-2L165.2,156.1z"/>
		<path id="path37" d="M182.7,156.1v-15h2v13.3h7.4v1.8h-9.4V156.1z"/>
	</g>
	<path id="path123-9-3-0-8" class="st0" d="M313.8,104H215c-5.6,0-10.1-4.5-10.1-10.1V76c0-5.6,4.5-10.1,10.1-10.1h98.9
		c5.6,0,10.1,4.5,10.1,10.1v17.9C323.9,99.5,319.4,104,313.8,104z"/>
	<g id="g49" transform="translate(-24,-96)">
		<path id="path43" d="M280,183.9l2,0.5c-0.4,1.6-1.2,2.9-2.3,3.7c-1.1,0.9-2.4,1.3-4,1.3s-2.9-0.3-4-1c-1-0.7-1.8-1.6-2.3-2.9
			c-0.5-1.3-0.8-2.6-0.8-4c0-1.6,0.3-2.9,0.9-4.1c0.6-1.2,1.4-2.1,2.6-2.7c1.1-0.6,2.3-0.9,3.6-0.9c1.5,0,2.8,0.4,3.8,1.1
			c1,0.7,1.7,1.8,2.1,3.2l-2,0.5c-0.3-1.1-0.9-1.9-1.5-2.4c-0.7-0.5-1.5-0.7-2.5-0.7c-1.2,0-2.1,0.3-2.9,0.8
			c-0.8,0.6-1.3,1.3-1.6,2.2c-0.3,0.9-0.5,1.9-0.5,2.9c0,1.3,0.2,2.4,0.6,3.3c0.4,1,1,1.7,1.7,2.1c0.8,0.5,1.6,0.7,2.6,0.7
			c1.1,0,2.1-0.3,2.8-1C279.2,186.1,279.7,185.1,280,183.9L280,183.9z"/>
		<path id="path45" d="M283.7,184.3l1.9-0.2c0.1,0.8,0.3,1.4,0.6,1.9c0.3,0.5,0.8,0.9,1.5,1.2s1.5,0.4,2.3,0.4s1.4-0.1,2-0.3
			s1-0.5,1.3-0.9s0.4-0.8,0.4-1.3s-0.1-0.9-0.4-1.2c-0.3-0.4-0.7-0.6-1.4-0.9c-0.4-0.2-1.3-0.4-2.7-0.7c-1.4-0.3-2.3-0.6-2.9-0.9
			c-0.7-0.4-1.3-0.8-1.6-1.4c-0.4-0.6-0.5-1.2-0.5-1.9c0-0.8,0.2-1.5,0.6-2.1c0.4-0.7,1.1-1.2,1.9-1.5s1.7-0.5,2.8-0.5
			c1.1,0,2.1,0.2,2.9,0.5c0.9,0.4,1.5,0.9,2,1.6c0.5,0.7,0.7,1.5,0.7,2.4l-1.9,0.1c-0.1-1-0.4-1.7-1-2.2s-1.5-0.7-2.6-0.7
			c-1.2,0-2.1,0.2-2.6,0.7c-0.6,0.4-0.8,1-0.8,1.6c0,0.5,0.2,1,0.6,1.3s1.4,0.7,3,1.1c1.6,0.4,2.7,0.7,3.3,1
			c0.9,0.4,1.5,0.9,1.9,1.5s0.6,1.3,0.6,2.1s-0.2,1.6-0.7,2.3s-1.1,1.3-2,1.7s-1.8,0.6-2.9,0.6c-1.4,0-2.5-0.2-3.4-0.6
			c-0.9-0.4-1.6-1-2.2-1.8C284,186.2,283.8,185.3,283.7,184.3L283.7,184.3z"/>
		<path id="path47" d="M297.7,184.3l1.9-0.2c0.1,0.8,0.3,1.4,0.6,1.9c0.3,0.5,0.8,0.9,1.5,1.2s1.5,0.4,2.3,0.4s1.4-0.1,2-0.3
			s1-0.5,1.3-0.9s0.4-0.8,0.4-1.3s-0.1-0.9-0.4-1.2c-0.3-0.4-0.7-0.6-1.4-0.9c-0.4-0.2-1.3-0.4-2.7-0.7c-1.4-0.3-2.3-0.6-2.9-0.9
			c-0.7-0.4-1.3-0.8-1.6-1.4c-0.4-0.6-0.5-1.2-0.5-1.9c0-0.8,0.2-1.5,0.6-2.1c0.4-0.7,1.1-1.2,1.9-1.5s1.7-0.5,2.8-0.5
			c1.1,0,2.1,0.2,2.9,0.5c0.8,0.4,1.5,0.9,2,1.6c0.5,0.7,0.7,1.5,0.7,2.4l-1.9,0.1c-0.1-1-0.5-1.7-1-2.2c-0.6-0.5-1.5-0.7-2.6-0.7
			c-1.2,0-2.1,0.2-2.6,0.7c-0.6,0.4-0.8,1-0.8,1.6c0,0.5,0.2,1,0.6,1.3s1.4,0.7,3,1.1c1.6,0.4,2.7,0.7,3.3,1
			c0.9,0.4,1.5,0.9,1.9,1.5s0.6,1.3,0.6,2.1s-0.2,1.6-0.7,2.3s-1.1,1.3-2,1.7s-1.8,0.6-2.9,0.6c-1.4,0-2.5-0.2-3.4-0.6
			c-0.9-0.4-1.6-1-2.2-1.8C298,186.2,297.8,185.3,297.7,184.3L297.7,184.3z"/>
	</g>
	<path id="path123-9-3-0-8-8-5-5-6" class="st0" d="M488.4,149.4h-98.8c-5.6,0-10.1-4.5-10.1-10.1v-17.9c0-5.6,4.5-10.1,10.1-10.1
		h98.9c5.6,0,10.1,4.5,10.1,10.1v17.9C498.5,144.9,494,149.4,488.4,149.4z"/>
	<g id="g65" transform="translate(149.4812,21.069997)">
		<path id="path53" d="M258.3,115.1v-15h5.7c1,0,1.8,0,2.3,0.1c0.7,0.1,1.4,0.4,1.9,0.7c0.5,0.3,0.9,0.8,1.2,1.5
			c0.3,0.7,0.5,1.3,0.5,2.1c0,1.3-0.4,2.4-1.2,3.2c-0.8,0.9-2.3,1.3-4.4,1.3h-3.9v6.1L258.3,115.1z M260.2,107.3h3.9
			c1.3,0,2.2-0.2,2.7-0.7s0.8-1.2,0.8-2c0-0.6-0.2-1.2-0.5-1.6s-0.7-0.7-1.3-0.9c-0.3-0.1-1-0.1-1.9-0.1h-3.8L260.2,107.3
			L260.2,107.3z"/>
		<path id="path55" d="M271.9,119.3l-0.2-1.7c0.4,0.1,0.8,0.2,1.1,0.2c0.4,0,0.7-0.1,1-0.2s0.4-0.3,0.6-0.6c0.1-0.2,0.3-0.6,0.6-1.4
			c0-0.1,0.1-0.3,0.2-0.5l-4.1-10.9h2l2.3,6.3c0.3,0.8,0.6,1.6,0.8,2.5c0.2-0.8,0.5-1.7,0.8-2.5l2.3-6.3h1.8l-4.1,11.1
			c-0.4,1.2-0.8,2-1,2.5c-0.3,0.6-0.7,1.1-1.1,1.3c-0.4,0.3-0.9,0.4-1.5,0.4C272.8,119.6,272.4,119.5,271.9,119.3L271.9,119.3z"/>
		<path id="path57" d="M286.6,113.5l0.3,1.6c-0.5,0.1-1,0.2-1.4,0.2c-0.7,0-1.2-0.1-1.6-0.3c-0.4-0.2-0.6-0.5-0.8-0.8
			c-0.2-0.3-0.2-1.1-0.2-2.2v-6.3h-1.4v-1.4h1.4v-2.7l1.8-1.1v3.8h1.9v1.4h-1.9v6.4c0,0.5,0,0.9,0.1,1s0.2,0.3,0.3,0.4
			c0.1,0.1,0.4,0.1,0.6,0.1S286.2,113.5,286.6,113.5L286.6,113.5z"/>
		<path id="path59" d="M288.4,115.1v-15h1.8v5.4c0.9-1,1.9-1.5,3.3-1.5c0.8,0,1.5,0.2,2.1,0.5s1,0.8,1.3,1.3
			c0.3,0.6,0.4,1.4,0.4,2.4v6.9h-1.8v-6.9c0-0.9-0.2-1.6-0.6-2s-1-0.6-1.7-0.6c-0.5,0-1.1,0.1-1.5,0.4c-0.5,0.3-0.8,0.7-1,1.2
			s-0.3,1.2-0.3,2v6h-2L288.4,115.1z"/>
		<path id="path61" d="M299.3,109.7c0-2,0.6-3.5,1.7-4.5c0.9-0.8,2.1-1.2,3.4-1.2c1.5,0,2.7,0.5,3.7,1.5s1.4,2.3,1.4,4.1
			c0,1.4-0.2,2.5-0.6,3.3s-1,1.4-1.8,1.9c-0.8,0.4-1.7,0.7-2.6,0.7c-1.5,0-2.8-0.5-3.7-1.5C299.9,113,299.3,111.5,299.3,109.7z
			 M301.2,109.7c0,1.4,0.3,2.4,0.9,3.1s1.4,1,2.3,1s1.7-0.3,2.3-1c0.6-0.7,0.9-1.8,0.9-3.2c0-1.3-0.3-2.4-0.9-3.1s-1.4-1-2.3-1
			s-1.7,0.3-2.3,1C301.5,107.3,301.2,108.3,301.2,109.7z"/>
		<path id="path63" d="M311.7,115.1v-10.9h1.7v1.5c0.8-1.2,2-1.8,3.5-1.8c0.7,0,1.3,0.1,1.8,0.4c0.5,0.2,1,0.5,1.2,0.9
			s0.5,0.8,0.6,1.4c0.1,0.3,0.1,0.9,0.1,1.8v6.7h-1.8v-6.6c0-0.8-0.1-1.3-0.2-1.7c-0.1-0.4-0.4-0.7-0.8-0.9
			c-0.4-0.2-0.8-0.3-1.3-0.3c-0.8,0-1.5,0.2-2,0.7s-0.9,1.4-0.9,2.8v5.9L311.7,115.1L311.7,115.1z"/>
	</g>
	<path id="path123-9-3-0-8-8-5-5" class="st0" d="M488.4,103.3h-98.8c-5.6,0-10.1-4.5-10.1-10.1V75.3c0-5.6,4.5-10.1,10.1-10.1h98.9
		c5.6,0,10.1,4.5,10.1,10.1v17.9C498.5,98.8,494,103.3,488.4,103.3z"/>
	<g id="g75" transform="translate(30.976668,-36.398573)">
		<path id="path69" d="M387.9,123.1l1.9-0.2c0.1,0.8,0.3,1.4,0.6,1.9c0.3,0.5,0.8,0.9,1.5,1.2c0.7,0.3,1.5,0.4,2.3,0.4
			s1.4-0.1,2-0.3c0.6-0.2,1-0.5,1.3-0.9s0.4-0.8,0.4-1.3s-0.1-0.9-0.4-1.2c-0.3-0.3-0.7-0.6-1.4-0.9c-0.4-0.2-1.3-0.4-2.7-0.7
			c-1.4-0.3-2.3-0.6-2.9-0.9c-0.7-0.4-1.3-0.8-1.6-1.4c-0.4-0.6-0.5-1.2-0.5-1.9c0-0.8,0.2-1.5,0.6-2.1c0.4-0.7,1.1-1.2,1.9-1.5
			s1.7-0.5,2.8-0.5c1.1,0,2.1,0.2,2.9,0.5c0.9,0.4,1.5,0.9,2,1.6s0.7,1.5,0.7,2.4l-1.9,0.1c-0.1-1-0.4-1.7-1-2.2s-1.5-0.7-2.6-0.7
			c-1.2,0-2.1,0.2-2.6,0.7c-0.6,0.4-0.8,1-0.8,1.6c0,0.5,0.2,1,0.6,1.3s1.4,0.7,3,1.1s2.7,0.7,3.3,1c0.9,0.4,1.5,0.9,1.9,1.5
			s0.6,1.3,0.6,2.1c0,0.8-0.2,1.6-0.7,2.3c-0.5,0.7-1.1,1.3-2,1.7c-0.9,0.4-1.8,0.6-2.9,0.6c-1.4,0-2.5-0.2-3.4-0.6s-1.6-1-2.2-1.8
			C388.2,125,388,124.1,387.9,123.1L387.9,123.1z"/>
		<path id="path71" d="M414,126.3c0.9,0.6,1.8,1.1,2.6,1.4l-0.6,1.4c-1.1-0.4-2.2-1-3.2-1.8c-1.1,0.6-2.3,0.9-3.7,0.9
			c-1.4,0-2.6-0.3-3.7-1s-2-1.6-2.6-2.8c-0.6-1.2-0.9-2.5-0.9-4s0.3-2.8,0.9-4.1c0.6-1.3,1.5-2.1,2.6-2.8c1.1-0.6,2.4-1,3.7-1
			c1.4,0,2.6,0.3,3.8,1c1.1,0.7,2,1.6,2.5,2.8c0.6,1.2,0.9,2.5,0.9,4c0,1.2-0.2,2.4-0.6,3.3C415.3,124.7,414.8,125.6,414,126.3
			L414,126.3z M409.6,123.8c1.1,0.3,2.1,0.8,2.8,1.4c1.2-1.1,1.8-2.7,1.8-4.8c0-1.2-0.2-2.3-0.6-3.2c-0.4-0.9-1-1.6-1.8-2.1
			s-1.7-0.8-2.7-0.8c-1.5,0-2.7,0.5-3.7,1.5s-1.5,2.5-1.5,4.5s0.5,3.5,1.5,4.5s2.2,1.6,3.7,1.6c0.7,0,1.4-0.1,2-0.4
			c-0.6-0.4-1.3-0.7-2-0.9L409.6,123.8z"/>
		<path id="path73" d="M418.9,127.9v-15h2v13.3h7.4v1.8L418.9,127.9L418.9,127.9z"/>
	</g>
	<path id="path123-9-3" class="st0" d="M145.1,59.4H46.3c-5.6,0-10.1-4.5-10.1-10.1V31.4c0-5.6,4.5-10.1,10.1-10.1h98.9
		c5.6,0,10.1,4.5,10.1,10.1v17.9C155.2,54.9,150.7,59.4,145.1,59.4L145.1,59.4z"/>
	<g id="g121" transform="translate(-164,8)">
		<path id="path109" d="M238.5,24.9h2v8.7c0,1.5-0.2,2.7-0.5,3.6c-0.3,0.9-1,1.6-1.9,2.2c-0.9,0.6-2.1,0.8-3.5,0.8s-2.6-0.2-3.5-0.7
			s-1.5-1.2-1.9-2.1c-0.4-0.9-0.6-2.2-0.6-3.8v-8.7h2v8.7c0,1.3,0.1,2.3,0.4,2.9c0.2,0.6,0.7,1.1,1.3,1.4c0.6,0.3,1.3,0.5,2.2,0.5
			c1.5,0,2.5-0.3,3.1-1s0.9-1.9,0.9-3.8V24.9z"/>
		<path id="path111" d="M243.6,27v-2.1h1.8V27H243.6z M243.6,39.9V29.1h1.8V40L243.6,39.9L243.6,39.9z"/>
		<path id="path113" d="M248.5,39.9v-15h5.7c1,0,1.8,0,2.3,0.1c0.7,0.1,1.4,0.4,1.9,0.7c0.5,0.3,0.9,0.8,1.2,1.5
			c0.3,0.6,0.5,1.3,0.5,2.1c0,1.3-0.4,2.4-1.2,3.2c-0.8,0.9-2.3,1.3-4.4,1.3h-3.9v6.1H248.5z M250.4,32.1h3.9c1.3,0,2.2-0.2,2.7-0.7
			s0.8-1.2,0.8-2c0-0.6-0.2-1.2-0.5-1.6s-0.7-0.7-1.3-0.9c-0.3-0.1-1-0.1-1.9-0.1h-3.8v5.3H250.4z"/>
		<path id="path115" d="M269.3,38.6c-0.7,0.6-1.3,1-2,1.2c-0.6,0.2-1.3,0.4-2,0.4c-1.2,0-2.1-0.3-2.8-0.9c-0.6-0.6-1-1.3-1-2.2
			c0-0.5,0.1-1,0.4-1.5c0.2-0.4,0.6-0.8,1-1.1s0.8-0.5,1.3-0.6c0.4-0.1,0.9-0.2,1.6-0.3c1.5-0.2,2.6-0.4,3.3-0.6c0-0.3,0-0.4,0-0.5
			c0-0.8-0.2-1.3-0.5-1.6c-0.5-0.4-1.2-0.6-2.1-0.6s-1.5,0.2-1.9,0.5s-0.7,0.8-0.9,1.6l-1.8-0.2c0.2-0.8,0.4-1.4,0.8-1.9
			s0.9-0.8,1.6-1.1c0.7-0.3,1.5-0.4,2.5-0.4c0.9,0,1.7,0.1,2.3,0.3c0.6,0.2,1,0.5,1.3,0.8s0.5,0.8,0.6,1.3c0.1,0.3,0.1,0.9,0.1,1.7
			v2.5c0,1.7,0,2.8,0.1,3.3s0.2,0.9,0.5,1.3h-1.9C269.5,39.6,269.4,39.1,269.3,38.6z M269.2,34.5c-0.7,0.3-1.7,0.5-3,0.7
			c-0.8,0.1-1.3,0.2-1.6,0.4c-0.3,0.2-0.6,0.3-0.7,0.6c-0.2,0.3-0.3,0.6-0.3,0.9c0,0.5,0.2,0.9,0.6,1.2s0.9,0.5,1.6,0.5
			s1.3-0.2,1.9-0.5s1-0.7,1.2-1.3c0.2-0.4,0.3-1,0.3-1.8V34.5z"/>
		<path id="path117" d="M277.9,38.3l0.3,1.6c-0.5,0.1-1,0.2-1.4,0.2c-0.7,0-1.2-0.1-1.6-0.3s-0.6-0.5-0.8-0.8
			c-0.2-0.3-0.2-1.1-0.2-2.2v-6.3h-1.4v-1.4h1.4v-2.7l1.8-1.1v3.8h1.9v1.4H276v6.4c0,0.5,0,0.9,0.1,1c0.1,0.2,0.2,0.3,0.3,0.4
			c0.1,0.1,0.4,0.1,0.6,0.1C277.3,38.4,277.6,38.3,277.9,38.3z"/>
		<path id="path119" d="M279.7,39.9v-15h1.8v5.4c0.9-1,1.9-1.5,3.3-1.5c0.8,0,1.5,0.2,2.1,0.5s1,0.8,1.3,1.3
			c0.3,0.6,0.4,1.4,0.4,2.4v6.9h-1.8V33c0-0.9-0.2-1.6-0.6-2s-1-0.6-1.7-0.6c-0.5,0-1.1,0.1-1.5,0.4c-0.5,0.3-0.8,0.7-1,1.2
			s-0.3,1.2-0.3,2v6L279.7,39.9L279.7,39.9z"/>
	</g>
	<path id="path123" class="st0" d="M663.4,57.4h-98.8c-5.6,0-10.1-4.5-10.1-10.1V29.4c0-5.6,4.5-10.1,10.1-10.1h98.9
		c5.6,0,10.1,4.5,10.1,10.1v17.9C673.5,52.9,669,57.4,663.4,57.4z"/>
	<g id="g147" transform="translate(492.51002,-175.56739)">
		<path id="path125" d="M79,220.9v-15h2v15H79z"/>
		<path id="path127" d="M84.2,220.9v-15H86v15H84.2z"/>
		<path id="path129" d="M88.8,220.9v-15h1.8v15H88.8z"/>
		<path id="path131" d="M100.7,220.9v-1.6c-0.8,1.2-2,1.8-3.5,1.8c-0.6,0-1.2-0.1-1.8-0.4c-0.6-0.2-1-0.6-1.2-0.9
			c-0.3-0.4-0.5-0.8-0.6-1.4c-0.1-0.4-0.1-0.9-0.1-1.7V210h1.8v6c0,1,0,1.6,0.1,1.9c0.1,0.5,0.4,0.9,0.7,1.1
			c0.4,0.3,0.8,0.4,1.4,0.4s1.1-0.1,1.6-0.4c0.5-0.3,0.8-0.7,1-1.2s0.3-1.2,0.3-2.1v-5.8h1.8v10.9h-1.5L100.7,220.9z"/>
		<path id="path133" d="M104.5,217.7l1.8-0.3c0.1,0.7,0.4,1.3,0.9,1.7s1.1,0.6,2,0.6c0.8,0,1.5-0.2,1.9-0.5s0.6-0.8,0.6-1.2
			s-0.2-0.7-0.5-1c-0.3-0.2-0.9-0.4-1.9-0.6c-1.4-0.3-2.3-0.6-2.8-0.9c-0.5-0.2-0.9-0.6-1.2-1c-0.3-0.4-0.4-0.9-0.4-1.5
			c0-0.5,0.1-0.9,0.3-1.3c0.2-0.4,0.5-0.8,0.9-1c0.3-0.2,0.7-0.4,1.2-0.5s1-0.2,1.6-0.2c0.9,0,1.6,0.1,2.3,0.4
			c0.6,0.2,1.1,0.6,1.4,1s0.5,1,0.6,1.7l-1.8,0.2c-0.1-0.6-0.3-1-0.7-1.3c-0.4-0.3-0.9-0.5-1.7-0.5c-0.8,0-1.5,0.1-1.8,0.4
			c-0.3,0.3-0.5,0.6-0.5,1c0,0.2,0.1,0.5,0.2,0.6c0.2,0.2,0.4,0.4,0.7,0.5c0.2,0.1,0.7,0.2,1.6,0.5c1.3,0.3,2.2,0.6,2.7,0.9
			c0.5,0.2,0.9,0.5,1.2,1c0.3,0.5,0.4,1,0.4,1.6s-0.2,1.2-0.5,1.7c-0.4,0.5-0.9,1-1.6,1.3s-1.4,0.4-2.3,0.4c-1.4,0-2.5-0.3-3.2-0.9
			C105.2,219.7,104.7,218.9,104.5,217.7L104.5,217.7z"/>
		<path id="path135" d="M119.8,219.3l0.3,1.6c-0.5,0.1-1,0.2-1.4,0.2c-0.7,0-1.2-0.1-1.6-0.3s-0.6-0.5-0.8-0.8
			c-0.2-0.3-0.2-1.1-0.2-2.2v-6.3h-1.4v-1.4h1.4v-2.7l1.8-1.1v3.8h1.9v1.4h-1.9v6.4c0,0.5,0,0.9,0.1,1c0.1,0.2,0.2,0.3,0.3,0.4
			c0.1,0.1,0.4,0.1,0.6,0.1C119.2,219.4,119.4,219.3,119.8,219.3L119.8,219.3z"/>
		<path id="path137" d="M121.5,220.9V210h1.7v1.7c0.4-0.8,0.8-1.3,1.2-1.5c0.4-0.2,0.8-0.4,1.2-0.4c0.6,0,1.3,0.2,1.9,0.6l-0.6,1.7
			c-0.5-0.3-0.9-0.4-1.4-0.4c-0.4,0-0.8,0.1-1.1,0.4c-0.3,0.2-0.6,0.6-0.7,1c-0.2,0.7-0.3,1.4-0.3,2.2v5.7h-1.9L121.5,220.9z"/>
		<path id="path139" d="M135.7,219.6c-0.7,0.6-1.3,1-2,1.2c-0.6,0.2-1.3,0.4-2,0.4c-1.2,0-2.1-0.3-2.8-0.9c-0.7-0.6-1-1.3-1-2.2
			c0-0.5,0.1-1,0.4-1.5c0.2-0.4,0.6-0.8,1-1.1s0.8-0.5,1.3-0.6c0.4-0.1,0.9-0.2,1.6-0.3c1.5-0.2,2.6-0.4,3.3-0.6c0-0.3,0-0.4,0-0.5
			c0-0.8-0.2-1.3-0.5-1.6c-0.5-0.4-1.2-0.6-2.1-0.6c-0.9,0-1.5,0.2-1.9,0.5s-0.7,0.8-0.9,1.6l-1.8-0.2c0.2-0.8,0.4-1.4,0.8-1.9
			c0.4-0.5,0.9-0.8,1.6-1.1c0.7-0.3,1.5-0.4,2.5-0.4c0.9,0,1.7,0.1,2.3,0.3s1,0.5,1.3,0.8s0.5,0.8,0.6,1.3c0.1,0.3,0.1,0.9,0.1,1.7
			v2.5c0,1.7,0,2.8,0.1,3.3s0.2,0.9,0.5,1.3H136C135.8,220.6,135.7,220.1,135.7,219.6z M135.5,215.5c-0.7,0.3-1.7,0.5-3,0.7
			c-0.8,0.1-1.3,0.2-1.6,0.4s-0.6,0.3-0.7,0.6c-0.2,0.3-0.3,0.6-0.3,0.9c0,0.5,0.2,0.9,0.6,1.2c0.4,0.3,0.9,0.5,1.6,0.5
			c0.7,0,1.3-0.2,1.9-0.5c0.6-0.3,1-0.7,1.2-1.3c0.2-0.4,0.3-1,0.3-1.8V215.5z"/>
		<path id="path141" d="M144.3,219.3l0.3,1.6c-0.5,0.1-1,0.2-1.4,0.2c-0.7,0-1.2-0.1-1.6-0.3c-0.4-0.2-0.6-0.5-0.8-0.8
			s-0.2-1.1-0.2-2.2v-6.3h-1.4v-1.4h1.4v-2.7l1.8-1.1v3.8h1.9v1.4h-1.9v6.4c0,0.5,0,0.9,0.1,1c0.1,0.2,0.2,0.3,0.3,0.4
			c0.1,0.1,0.4,0.1,0.6,0.1C143.7,219.4,143.9,219.3,144.3,219.3L144.3,219.3z"/>
		<path id="path143" d="M145.4,215.5c0-2,0.6-3.5,1.7-4.5c0.9-0.8,2.1-1.2,3.4-1.2c1.5,0,2.7,0.5,3.7,1.5s1.4,2.3,1.4,4.1
			c0,1.4-0.2,2.5-0.6,3.3c-0.4,0.8-1,1.4-1.8,1.9c-0.8,0.4-1.7,0.7-2.6,0.7c-1.5,0-2.8-0.5-3.7-1.5
			C145.9,218.8,145.4,217.3,145.4,215.5L145.4,215.5z M147.3,215.5c0,1.4,0.3,2.4,0.9,3.1c0.6,0.7,1.4,1,2.3,1c0.9,0,1.7-0.3,2.3-1
			s0.9-1.8,0.9-3.2c0-1.3-0.3-2.4-0.9-3.1c-0.6-0.7-1.4-1-2.3-1c-0.9,0-1.7,0.3-2.3,1C147.6,213.1,147.3,214.1,147.3,215.5z"/>
		<path id="path145" d="M157.7,220.9V210h1.7v1.7c0.4-0.8,0.8-1.3,1.2-1.5s0.8-0.4,1.2-0.4c0.6,0,1.3,0.2,1.9,0.6l-0.6,1.7
			c-0.5-0.3-0.9-0.4-1.4-0.4c-0.4,0-0.8,0.1-1.1,0.4c-0.3,0.2-0.6,0.6-0.7,1c-0.2,0.7-0.3,1.4-0.3,2.2v5.7h-1.9L157.7,220.9z"/>
	</g>
	<path id="path123-9-3-0-8-8-5" class="st0" d="M488.4,57h-98.8c-5.6,0-10.1-4.5-10.1-10.1V29c0-5.6,4.5-10.1,10.1-10.1h98.9
		c5.6,0,10.1,4.5,10.1,10.1v17.9C498.5,52.5,494,57,488.4,57z"/>
</g>
<g class="st1">
	<path d="M418.6,44.4V29.1h5.8c1,0,1.8,0,2.3,0.1c0.8,0.1,1.4,0.4,1.9,0.7c0.5,0.4,0.9,0.8,1.2,1.5c0.3,0.6,0.5,1.3,0.5,2.1
		c0,1.3-0.4,2.4-1.2,3.3c-0.8,0.9-2.3,1.3-4.5,1.3h-3.9v6.2H418.6z M420.7,36.3h3.9c1.3,0,2.2-0.2,2.8-0.7c0.5-0.5,0.8-1.2,0.8-2.1
		c0-0.6-0.2-1.2-0.5-1.6c-0.3-0.5-0.7-0.8-1.3-0.9c-0.3-0.1-1-0.1-1.9-0.1h-3.9V36.3z"/>
	<path d="M432.8,44.4V29.1h5.7c1.2,0,2.1,0.2,2.8,0.5c0.7,0.3,1.3,0.8,1.7,1.4c0.4,0.6,0.6,1.3,0.6,2c0,0.7-0.2,1.3-0.5,1.8
		s-0.9,1-1.6,1.4c0.9,0.3,1.6,0.7,2.1,1.4c0.5,0.7,0.7,1.4,0.7,2.3c0,0.7-0.2,1.4-0.5,2c-0.3,0.6-0.7,1.1-1.1,1.4
		c-0.4,0.3-1,0.6-1.7,0.8s-1.5,0.3-2.5,0.3H432.8z M434.8,35.5h3.3c0.9,0,1.5-0.1,1.9-0.2c0.5-0.2,0.9-0.4,1.2-0.8
		c0.3-0.4,0.4-0.8,0.4-1.3c0-0.5-0.1-1-0.4-1.3c-0.2-0.4-0.6-0.6-1-0.8s-1.2-0.2-2.3-0.2h-3.1V35.5z M434.8,42.6h3.8
		c0.7,0,1.1,0,1.4-0.1c0.5-0.1,0.9-0.2,1.2-0.4c0.3-0.2,0.6-0.5,0.8-0.8c0.2-0.4,0.3-0.8,0.3-1.3c0-0.6-0.1-1.1-0.4-1.5
		c-0.3-0.4-0.7-0.7-1.2-0.9s-1.3-0.3-2.2-0.3h-3.5V42.6z"/>
	<path d="M447.4,44.4V29.1h2v15.3H447.4z"/>
</g>
<path id="rect27844" d="M174,21.3L174,21.3c0.8,0,1.5,0.7,1.5,1.5v130.5c0,0.8-0.7,1.5-1.5,1.5h0c-0.8,0-1.5-0.7-1.5-1.5V22.9
	C172.5,22,173.2,21.3,174,21.3z"/>
<path id="rect27844-3" d="M348.3,20L348.3,20c0.8,0,1.5,0.7,1.5,1.5V152c0,0.8-0.7,1.5-1.5,1.5h0c-0.8,0-1.5-0.7-1.5-1.5V21.5
	C346.8,20.7,347.5,20,348.3,20z"/>
<path id="rect27844-3-8" d="M524.5,20L524.5,20c0.8,0,1.5,0.7,1.5,1.5V152c0,0.8-0.7,1.5-1.5,1.5l0,0c-0.8,0-1.5-0.7-1.5-1.5V21.6
	C523,20.7,523.7,20,524.5,20z"/>
</svg>
