<?xml version="1.0" encoding="UTF-8" standalone="no"?>
<!-- Generator: Adobe Illustrator 25.4.1, SVG Export Plug-In . SVG Version: 6.00 Build 0)  -->

<svg
   version="1.1"
   id="Layer_1"
   x="0px"
   y="0px"
   viewBox="0 0 600 280"
   xml:space="preserve"
   sodipodi:docname="welcome.svg"
   inkscape:version="1.1.1 (3bf5ae0d25, 2021-09-20)"
   width="600"
   height="280"
   xmlns:inkscape="http://www.inkscape.org/namespaces/inkscape"
   xmlns:sodipodi="http://sodipodi.sourceforge.net/DTD/sodipodi-0.dtd"
   xmlns="http://www.w3.org/2000/svg"
   xmlns:svg="http://www.w3.org/2000/svg"><defs
   id="defs657" /><sodipodi:namedview
   id="namedview655"
   pagecolor="#ffffff"
   bordercolor="#999999"
   borderopacity="1"
   inkscape:pageshadow="0"
   inkscape:pageopacity="0"
   inkscape:pagecheckerboard="0"
   showgrid="false"
   height="300px"
   inkscape:zoom="1.0058594"
   inkscape:cx="545.30484"
   inkscape:cy="202.31456"
   inkscape:window-width="1920"
   inkscape:window-height="1017"
   inkscape:window-x="-8"
   inkscape:window-y="-8"
   inkscape:window-maximized="1"
   inkscape:current-layer="Layer_1" />
<style
   type="text/css"
   id="style579">
	.st0{fill:url(#SVGID_1_);}
	.st1{fill:url(#SVGID_00000121243288899497107780000002728265987536186770_);}
	.st2{fill:url(#SVGID_00000080917671034479738100000017169429748570392999_);}
	.st3{fill:url(#SVGID_00000037670134949963800260000014843182161406504067_);}
	.st4{fill:url(#SVGID_00000128477241022393233740000016417288512713454770_);}
	.st5{fill:url(#SVGID_00000088836862101282333010000014336973011809271205_);}
	.st6{fill:url(#SVGID_00000028322065013006723390000004182990533994627243_);}
	.st7{fill:#3A3A3A;}
</style>
<g
   id="g652"
   transform="matrix(0.88280555,0,0,0.88280555,-10.651552,32.70699)">
	<linearGradient
   id="SVGID_1_"
   gradientUnits="userSpaceOnUse"
   x1="91.056999"
   y1="92.096802"
   x2="289.2572"
   y2="24.5737">
		<stop
   offset="0"
   style="stop-color:#D7E4F5"
   id="stop581" />
		<stop
   offset="1"
   style="stop-color:#BAABD4"
   id="stop583" />
	</linearGradient>
	<path
   class="st0"
   d="M 126.4,101.1 113.9,51.8 h 6.7 l 5.8,24.9 c 1.5,6.1 2.8,12.3 3.7,17 h 0.1 c 0.8,-4.9 2.3,-10.7 4,-17.1 l 6.6,-24.9 h 6.7 l 6,25 c 1.4,5.8 2.7,11.7 3.4,16.9 h 0.1 c 1,-5.4 2.4,-10.9 3.9,-17 l 6.5,-24.9 h 6.5 l -14,49.3 h -6.7 L 147,75.3 C 145.5,69 144.4,64.2 143.8,59.2 h -0.1 c -0.8,4.9 -2,9.7 -3.8,16.1 l -7,25.7 h -6.5 z"
   id="path586"
   style="fill:url(#SVGID_1_)" />
	
		<linearGradient
   id="SVGID_00000160182750755946215550000002250409906971164820_"
   gradientUnits="userSpaceOnUse"
   x1="99.041397"
   y1="115.5336"
   x2="297.24161"
   y2="48.010399">
		<stop
   offset="0"
   style="stop-color:#D7E4F5"
   id="stop588" />
		<stop
   offset="1"
   style="stop-color:#BAABD4"
   id="stop590" />
	</linearGradient>
	<path
   style="fill:url(#SVGID_00000160182750755946215550000002250409906971164820_)"
   d="m 181.1,84.6 c 0.1,8.7 5.6,12.3 12.1,12.3 4.6,0 7.5,-0.8 9.8,-1.8 l 1.2,4.6 c -2.3,1 -6.2,2.3 -11.8,2.3 -10.9,0 -17.4,-7.2 -17.4,-17.9 0,-10.7 6.3,-19 16.6,-19 11.6,0 14.6,10.1 14.6,16.6 0,1.3 -0.1,2.3 -0.2,3 H 181.1 Z M 200,80 c 0.1,-4 -1.7,-10.4 -8.9,-10.4 -6.6,0 -9.4,5.9 -9.9,10.4 z"
   id="path593" />
	
		<linearGradient
   id="SVGID_00000035507103798019275910000007177790366776104872_"
   gradientUnits="userSpaceOnUse"
   x1="99.015503"
   y1="115.4575"
   x2="297.2157"
   y2="47.934399">
		<stop
   offset="0"
   style="stop-color:#D7E4F5"
   id="stop595" />
		<stop
   offset="1"
   style="stop-color:#BAABD4"
   id="stop597" />
	</linearGradient>
	<path
   style="fill:url(#SVGID_00000035507103798019275910000007177790366776104872_)"
   d="m 214.2,49.2 h 6.4 v 51.9 h -6.4 z"
   id="path600" />
	
		<linearGradient
   id="SVGID_00000067219695065765768960000000683521906695277500_"
   gradientUnits="userSpaceOnUse"
   x1="104.6817"
   y1="132.08949"
   x2="302.8819"
   y2="64.566399">
		<stop
   offset="0"
   style="stop-color:#D7E4F5"
   id="stop602" />
		<stop
   offset="1"
   style="stop-color:#BAABD4"
   id="stop604" />
	</linearGradient>
	<path
   style="fill:url(#SVGID_00000067219695065765768960000000683521906695277500_)"
   d="m 256.6,99.8 c -1.7,0.8 -5.4,2 -10.2,2 -10.7,0 -17.6,-7.2 -17.6,-18.1 0,-10.9 7.5,-18.9 19,-18.9 3.8,0 7.2,1 8.9,1.9 l -1.5,4.9 c -1.5,-0.8 -3.9,-1.7 -7.5,-1.7 -8.1,0 -12.5,6.1 -12.5,13.4 0,8.2 5.3,13.2 12.3,13.2 3.7,0 6.1,-0.9 7.9,-1.7 z"
   id="path607" />
	
		<linearGradient
   id="SVGID_00000095316132806801734490000014458209040733884583_"
   gradientUnits="userSpaceOnUse"
   x1="107.8909"
   y1="141.5094"
   x2="306.09109"
   y2="73.986298">
		<stop
   offset="0"
   style="stop-color:#D7E4F5"
   id="stop609" />
		<stop
   offset="1"
   style="stop-color:#BAABD4"
   id="stop611" />
	</linearGradient>
	<path
   style="fill:url(#SVGID_00000095316132806801734490000014458209040733884583_)"
   d="m 295.7,83.1 c 0,13.1 -9.1,18.8 -17.6,18.8 -9.5,0 -17,-7 -17,-18.2 0,-11.8 7.8,-18.7 17.5,-18.7 10.3,0 17.1,7.4 17.1,18.1 z m -28,0.4 c 0,7.7 4.4,13.6 10.7,13.6 6.1,0 10.7,-5.8 10.7,-13.7 0,-6 -3,-13.5 -10.6,-13.5 -7.5,-0.1 -10.8,6.9 -10.8,13.6 z"
   id="path614" />
	
		<linearGradient
   id="SVGID_00000018954643722418483070000011020608986067998909_"
   gradientUnits="userSpaceOnUse"
   x1="113.1425"
   y1="156.9245"
   x2="311.34271"
   y2="89.401299">
		<stop
   offset="0"
   style="stop-color:#D7E4F5"
   id="stop616" />
		<stop
   offset="1"
   style="stop-color:#BAABD4"
   id="stop618" />
	</linearGradient>
	<path
   style="fill:url(#SVGID_00000018954643722418483070000011020608986067998909_)"
   d="m 303.8,75.3 c 0,-3.7 -0.1,-6.7 -0.3,-9.6 h 5.6 l 0.3,5.8 h 0.2 c 2,-3.4 5.3,-6.5 11.2,-6.5 4.8,0 8.4,2.9 9.9,7.1 h 0.1 c 1.1,-2 2.6,-3.5 4,-4.6 2.1,-1.6 4.4,-2.5 7.7,-2.5 4.8,0 11.7,3.1 11.7,15.3 v 20.8 h -6.3 v -20 c 0,-6.9 -2.6,-10.9 -7.7,-10.9 -3.7,0 -6.5,2.7 -7.7,5.8 -0.3,1 -0.5,2 -0.5,3.2 v 21.9 h -6 V 79.9 c 0,-5.6 -2.5,-9.6 -7.4,-9.6 -3.9,0 -6.9,3.2 -8,6.4 -0.4,0.9 -0.5,2 -0.5,3.1 v 21.3 h -6.3 z"
   id="path621" />
	
		<linearGradient
   id="SVGID_00000129166030258303682520000005375337601396570786_"
   gradientUnits="userSpaceOnUse"
   x1="118.5133"
   y1="172.6893"
   x2="316.7135"
   y2="105.1662">
		<stop
   offset="0"
   style="stop-color:#D7E4F5"
   id="stop623" />
		<stop
   offset="1"
   style="stop-color:#BAABD4"
   id="stop625" />
	</linearGradient>
	<path
   style="fill:url(#SVGID_00000129166030258303682520000005375337601396570786_)"
   d="m 368.4,84.6 c 0.1,8.7 5.6,12.3 12.1,12.3 4.6,0 7.5,-0.8 9.8,-1.8 l 1.2,4.6 c -2.3,1 -6.2,2.3 -11.8,2.3 -10.9,0 -17.4,-7.2 -17.4,-17.9 0,-10.7 6.3,-19 16.6,-19 11.6,0 14.6,10.1 14.6,16.6 0,1.3 -0.1,2.3 -0.2,3 H 368.4 Z M 387.2,80 c 0.1,-4 -1.7,-10.4 -8.9,-10.4 -6.6,0 -9.4,5.9 -9.9,10.4 z"
   id="path628" />
	<g
   id="g644">
		<path
   class="st7"
   d="m 120.7,122.3 c 4.4,-0.8 10.7,-1.4 16.5,-1.4 9.2,0 15.2,1.8 19.3,5.4 3.3,3 5.2,7.5 5.2,12.8 0,8.7 -5.5,14.5 -12.5,16.9 v 0.3 c 5,1.8 8.1,6.5 9.7,13.5 2.2,9.3 3.8,15.7 5.1,18.3 h -8.9 c -1.1,-2 -2.6,-7.6 -4.4,-15.9 -2,-9.2 -5.6,-12.7 -13.5,-13 h -8.1 v 28.9 h -8.6 v -65.8 z m 8.6,30.4 h 8.8 c 9.2,0 15,-5 15,-12.7 0,-8.6 -6.2,-12.4 -15.3,-12.4 -4.2,0 -7,0.3 -8.5,0.7 z"
   id="path630" />
		<path
   class="st7"
   d="m 173.9,122.2 c 4.2,-0.7 9.6,-1.3 16.5,-1.3 8.5,0 14.7,2 18.7,5.5 3.6,3.2 5.8,8 5.8,14 0,6 -1.8,10.8 -5.1,14.3 -4.7,4.8 -12,7.3 -20.4,7.3 -2.6,0 -4.9,-0.1 -6.9,-0.6 v 26.7 h -8.6 z m 8.6,32.1 c 1.9,0.5 4.3,0.7 7.1,0.7 10.4,0 16.7,-5.1 16.7,-14.2 0,-8.9 -6.3,-13.2 -15.7,-13.2 -3.8,0 -6.6,0.3 -8.1,0.7 z"
   id="path632" />
		<path
   class="st7"
   d="m 229.1,167.1 -6.9,21 h -8.9 l 22.8,-66.7 h 10.3 l 22.8,66.7 H 260 l -7.1,-21 z m 21.9,-6.7 -6.6,-19.2 c -1.5,-4.4 -2.5,-8.3 -3.5,-12.2 h -0.2 c -1,3.9 -2,8 -3.4,12.1 l -6.5,19.3 z"
   id="path634" />
		<path
   class="st7"
   d="m 310.1,188.1 v -28.3 l -21.2,-38.4 h 9.9 l 9.4,18.4 c 2.5,5 4.6,9.1 6.6,13.8 h 0.2 c 1.8,-4.4 4.2,-8.7 6.7,-13.8 l 9.6,-18.4 h 9.7 l -22.3,38.3 v 28.4 z"
   id="path636" />
		<path
   class="st7"
   d="m 375.2,176.6 c 0,4.2 0.2,8.2 0.7,11.5 h -7.8 l -0.7,-6 h -0.3 c -2.7,3.8 -7.8,7.1 -14.6,7.1 -9.7,0 -14.6,-6.8 -14.6,-13.8 0,-11.6 10.3,-17.9 28.8,-17.8 v -1 c 0,-3.9 -1.1,-11.1 -10.9,-11 -4.6,0 -9.2,1.3 -12.6,3.6 l -2,-5.8 c 4,-2.5 9.8,-4.2 15.8,-4.2 14.6,0 18.2,10 18.2,19.5 z m -8.4,-13 c -9.5,-0.2 -20.3,1.5 -20.3,10.8 0,5.7 3.8,8.3 8.1,8.3 6.3,0 10.4,-4 11.8,-8 0.3,-1 0.4,-2 0.4,-2.8 z"
   id="path638" />
		<path
   class="st7"
   d="m 389.3,155.1 c 0,-5.6 -0.1,-10.5 -0.4,-14.9 h 7.6 l 0.4,9.5 h 0.3 c 2.2,-6.4 7.5,-10.5 13.4,-10.5 0.9,0 1.6,0.1 2.4,0.2 v 8.2 c -0.9,-0.2 -1.8,-0.2 -3,-0.2 -6.1,0 -10.5,4.6 -11.7,11.1 -0.2,1.2 -0.3,2.7 -0.3,4.1 v 25.5 h -8.7 z"
   id="path640" />
		<path
   class="st7"
   d="m 461.9,117.8 v 57.9 c 0,4.3 0.2,9.1 0.4,12.4 h -7.7 l -0.4,-8.3 h -0.3 c -2.6,5.3 -8.3,9.4 -16.1,9.4 -11.6,0 -20.6,-9.8 -20.6,-24.3 -0.1,-15.9 9.9,-25.6 21.5,-25.6 7.4,0 12.3,3.5 14.4,7.2 h 0.2 v -28.6 h 8.6 z m -8.6,41.9 c 0,-1.1 -0.1,-2.6 -0.4,-3.7 -1.3,-5.4 -6,-10 -12.6,-10 -9,0 -14.4,7.9 -14.4,18.4 0,9.7 4.8,17.7 14.2,17.7 5.8,0 11.2,-4 12.8,-10.4 0.3,-1.2 0.4,-2.4 0.4,-3.8 z"
   id="path642" />
	</g>
	<g
   id="g650">
		<path
   class="st7"
   d="M 429.9,73.4 V 79 h 6.1 v 3.3 h -6.1 V 95 c 0,2.9 0.8,4.6 3.2,4.6 1.2,0 1.9,-0.1 2.5,-0.3 l 0.2,3.3 c -0.8,0.3 -2.1,0.6 -3.8,0.6 -2,0 -3.6,-0.7 -4.6,-1.8 -1.2,-1.3 -1.7,-3.4 -1.7,-6.2 V 82.3 H 422 V 79 h 3.7 v -4.4 z"
   id="path646" />
		<path
   class="st7"
   d="m 461.9,90.6 c 0,8.7 -6.1,12.5 -11.7,12.5 -6.3,0 -11.3,-4.7 -11.3,-12.1 0,-7.8 5.2,-12.5 11.7,-12.5 6.7,0.1 11.3,5 11.3,12.1 z m -18.6,0.3 c 0,5.2 2.9,9.1 7.1,9.1 4.1,0 7.2,-3.8 7.2,-9.2 0,-4 -2,-9 -7.1,-9 -5,0 -7.2,4.7 -7.2,9.1 z"
   id="path648" />
	</g>
</g>
<rect
   style="fill:#3a3a3a;fill-opacity:1;stroke-width:8.74873"
   id="rect893"
   width="389.1171"
   height="43.049915"
   x="94.745193"
   y="222.32986"
   ry="0" /><rect
   style="fill:#3a3a3a;fill-opacity:1;stroke-width:7.10204"
   id="rect893-5"
   width="64.015953"
   height="166.90689"
   x="419.53607"
   y="57.937706"
   ry="0" /><rect
   style="fill:#3a3a3a;fill-opacity:1;stroke-width:2.94043"
   id="rect893-5-2"
   width="17.280382"
   height="109.5043"
   x="261.72604"
   y="-467.42957"
   ry="0"
   transform="matrix(0.30808317,0.95135943,-0.85354731,0.52101534,0,0)" /><rect
   style="fill:#ffffff;fill-opacity:1;stroke-width:7.22752"
   id="rect22430"
   width="54.364815"
   height="42.052666"
   x="458.39218"
   y="139.0544" /><rect
   style="fill:#ffffff;fill-opacity:1;stroke-width:7.22752"
   id="rect22430-6"
   width="54.364815"
   height="42.052666"
   x="458.39218"
   y="78.139801" /><rect
   style="fill:#ffffff;fill-opacity:1;stroke-width:6.67384"
   id="rect22430-5"
   width="175.42897"
   height="11.111763"
   x="107.23102"
   y="220.08092" /><rect
   style="fill:#ffffff;fill-opacity:1;stroke-width:5.5626"
   id="rect22430-5-9"
   width="121.87224"
   height="11.111763"
   x="297.67783"
   y="220.5607" /></svg>
