<?xml version="1.0" encoding="utf-8"?>
<!-- Generator: Adobe Illustrator 25.2.1, SVG Export Plug-In . SVG Version: 6.00 Build 0)  -->
<svg version="1.1"
	 id="Layer_1" sodipodi:docname="welcome.svg" xmlns:inkscape="http://www.inkscape.org/namespaces/inkscape" xmlns:sodipodi="http://sodipodi.sourceforge.net/DTD/sodipodi-0.dtd" xmlns:svg="http://www.w3.org/2000/svg"
	 xmlns="http://www.w3.org/2000/svg" xmlns:xlink="http://www.w3.org/1999/xlink" x="0px" y="0px" viewBox="0 0 600 280"
	 style="enable-background:new 0 0 600 280;" xml:space="preserve">
<style type="text/css">
	.st0{fill:url(#path586_1_);}
	.st1{fill:url(#path593_1_);}
	.st2{fill:url(#path600_1_);}
	.st3{fill:url(#path607_1_);}
	.st4{fill:url(#path614_1_);}
	.st5{fill:url(#path621_1_);}
	.st6{fill:url(#path628_1_);}
	.st7{fill:#FFFFFF;}
</style>
<sodipodi:namedview  bordercolor="#999999" borderopacity="1" height="300px" id="namedview655" inkscape:current-layer="Layer_1" inkscape:cx="545.30484" inkscape:cy="202.31456" inkscape:pagecheckerboard="0" inkscape:pageopacity="0" inkscape:pageshadow="0" inkscape:window-height="1017" inkscape:window-maximized="1" inkscape:window-width="1920" inkscape:window-x="-8" inkscape:window-y="-8" inkscape:zoom="1.0058594" pagecolor="#ffffff" showgrid="false">
	</sodipodi:namedview>
<g id="g652" transform="matrix(0.88280555,0,0,0.88280555,-10.651552,32.70699)">
	
		<linearGradient id="path586_1_" gradientUnits="userSpaceOnUse" x1="214.2806" y1="118.1446" x2="412.4808" y2="185.6677" gradientTransform="matrix(0.8828 0 0 -0.8828 -98.1353 196.3247)">
		<stop  offset="0" style="stop-color:#386555"/>
		<stop  offset="1" style="stop-color:#63A489"/>
	</linearGradient>
	<path id="path586" class="st0" d="M126.4,101.1l-12.5-49.3h6.7l5.8,24.9c1.5,6.1,2.8,12.3,3.7,17h0.1c0.8-4.9,2.3-10.7,4-17.1
		l6.6-24.9h6.7l6,25c1.4,5.8,2.7,11.7,3.4,16.9h0.1c1-5.4,2.4-10.9,3.9-17l6.5-24.9h6.5l-14,49.3h-6.7L147,75.3
		c-1.5-6.3-2.6-11.1-3.2-16.1h-0.1c-0.8,4.9-2,9.7-3.8,16.1l-7,25.7L126.4,101.1L126.4,101.1z"/>
	
		<linearGradient id="path593_1_" gradientUnits="userSpaceOnUse" x1="223.3857" y1="91.4182" x2="421.5859" y2="158.9414" gradientTransform="matrix(0.8828 0 0 -0.8828 -98.1353 196.3247)">
		<stop  offset="0" style="stop-color:#386555"/>
		<stop  offset="1" style="stop-color:#63A489"/>
	</linearGradient>
	<path id="path593" class="st1" d="M181.1,84.6c0.1,8.7,5.6,12.3,12.1,12.3c4.6,0,7.5-0.8,9.8-1.8l1.2,4.6c-2.3,1-6.2,2.3-11.8,2.3
		c-10.9,0-17.4-7.2-17.4-17.9s6.3-19,16.6-19c11.6,0,14.6,10.1,14.6,16.6c0,1.3-0.1,2.3-0.2,3L181.1,84.6L181.1,84.6z M200,80
		c0.1-4-1.7-10.4-8.9-10.4c-6.6,0-9.4,5.9-9.9,10.4H200z"/>
	
		<linearGradient id="path600_1_" gradientUnits="userSpaceOnUse" x1="223.3312" y1="91.5784" x2="421.5314" y2="159.1015" gradientTransform="matrix(0.8828 0 0 -0.8828 -98.1353 196.3247)">
		<stop  offset="0" style="stop-color:#386555"/>
		<stop  offset="1" style="stop-color:#63A489"/>
	</linearGradient>
	<path id="path600" class="st2" d="M214.2,49.2h6.4v51.9h-6.4V49.2z"/>
	
		<linearGradient id="path607_1_" gradientUnits="userSpaceOnUse" x1="229.6997" y1="72.8849" x2="427.8999" y2="140.408" gradientTransform="matrix(0.8828 0 0 -0.8828 -98.1353 196.3247)">
		<stop  offset="0" style="stop-color:#386555"/>
		<stop  offset="1" style="stop-color:#63A489"/>
	</linearGradient>
	<path id="path607" class="st3" d="M256.6,99.8c-1.7,0.8-5.4,2-10.2,2c-10.7,0-17.6-7.2-17.6-18.1s7.5-18.9,19-18.9
		c3.8,0,7.2,1,8.9,1.9l-1.5,4.9c-1.5-0.8-3.9-1.7-7.5-1.7c-8.1,0-12.5,6.1-12.5,13.4c0,8.2,5.3,13.2,12.3,13.2
		c3.7,0,6.1-0.9,7.9-1.7L256.6,99.8z"/>
	
		<linearGradient id="path614_1_" gradientUnits="userSpaceOnUse" x1="233.3777" y1="62.0888" x2="431.5779" y2="129.6119" gradientTransform="matrix(0.8828 0 0 -0.8828 -98.1353 196.3247)">
		<stop  offset="0" style="stop-color:#386555"/>
		<stop  offset="1" style="stop-color:#63A489"/>
	</linearGradient>
	<path id="path614" class="st4" d="M295.7,83.1c0,13.1-9.1,18.8-17.6,18.8c-9.5,0-17-7-17-18.2c0-11.8,7.8-18.7,17.5-18.7
		C288.9,65,295.7,72.4,295.7,83.1z M267.7,83.5c0,7.7,4.4,13.6,10.7,13.6c6.1,0,10.7-5.8,10.7-13.7c0-6-3-13.5-10.6-13.5
		C271,69.8,267.7,76.8,267.7,83.5L267.7,83.5z"/>
	
		<linearGradient id="path621_1_" gradientUnits="userSpaceOnUse" x1="239.3126" y1="44.6682" x2="437.5128" y2="112.1914" gradientTransform="matrix(0.8828 0 0 -0.8828 -98.1353 196.3247)">
		<stop  offset="0" style="stop-color:#386555"/>
		<stop  offset="1" style="stop-color:#63A489"/>
	</linearGradient>
	<path id="path621" class="st5" d="M303.8,75.3c0-3.7-0.1-6.7-0.3-9.6h5.6l0.3,5.8h0.2c2-3.4,5.3-6.5,11.2-6.5
		c4.8,0,8.4,2.9,9.9,7.1h0.1c1.1-2,2.6-3.5,4-4.6c2.1-1.6,4.4-2.5,7.7-2.5c4.8,0,11.7,3.1,11.7,15.3v20.8h-6.3v-20
		c0-6.9-2.6-10.9-7.7-10.9c-3.7,0-6.5,2.7-7.7,5.8c-0.3,1-0.5,2-0.5,3.2v21.9h-6V79.9c0-5.6-2.5-9.6-7.4-9.6c-3.9,0-6.9,3.2-8,6.4
		c-0.4,0.9-0.5,2-0.5,3.1v21.3h-6.3L303.8,75.3z"/>
	
		<linearGradient id="path628_1_" gradientUnits="userSpaceOnUse" x1="245.4495" y1="26.6545" x2="443.6497" y2="94.1776" gradientTransform="matrix(0.8828 0 0 -0.8828 -98.1353 196.3247)">
		<stop  offset="0" style="stop-color:#386555"/>
		<stop  offset="1" style="stop-color:#63A489"/>
	</linearGradient>
	<path id="path628" class="st6" d="M368.4,84.6c0.1,8.7,5.6,12.3,12.1,12.3c4.6,0,7.5-0.8,9.8-1.8l1.2,4.6c-2.3,1-6.2,2.3-11.8,2.3
		c-10.9,0-17.4-7.2-17.4-17.9s6.3-19,16.6-19c11.6,0,14.6,10.1,14.6,16.6c0,1.3-0.1,2.3-0.2,3L368.4,84.6L368.4,84.6z M387.2,80
		c0.1-4-1.7-10.4-8.9-10.4c-6.6,0-9.4,5.9-9.9,10.4H387.2z"/>
	<g id="g644">
		<path id="path630" d="M120.7,122.3c4.4-0.8,10.7-1.4,16.5-1.4c9.2,0,15.2,1.8,19.3,5.4c3.3,3,5.2,7.5,5.2,12.8
			c0,8.7-5.5,14.5-12.5,16.9v0.3c5,1.8,8.1,6.5,9.7,13.5c2.2,9.3,3.8,15.7,5.1,18.3h-8.9c-1.1-2-2.6-7.6-4.4-15.9
			c-2-9.2-5.6-12.7-13.5-13h-8.1v28.9h-8.6v-65.8H120.7z M129.3,152.7h8.8c9.2,0,15-5,15-12.7c0-8.6-6.2-12.4-15.3-12.4
			c-4.2,0-7,0.3-8.5,0.7V152.7z"/>
		<path id="path632" d="M173.9,122.2c4.2-0.7,9.6-1.3,16.5-1.3c8.5,0,14.7,2,18.7,5.5c3.6,3.2,5.8,8,5.8,14s-1.8,10.8-5.1,14.3
			c-4.7,4.8-12,7.3-20.4,7.3c-2.6,0-4.9-0.1-6.9-0.6v26.7h-8.6V122.2z M182.5,154.3c1.9,0.5,4.3,0.7,7.1,0.7
			c10.4,0,16.7-5.1,16.7-14.2c0-8.9-6.3-13.2-15.7-13.2c-3.8,0-6.6,0.3-8.1,0.7V154.3z"/>
		<path id="path634" d="M229.1,167.1l-6.9,21h-8.9l22.8-66.7h10.3l22.8,66.7H260l-7.1-21H229.1z M251,160.4l-6.6-19.2
			c-1.5-4.4-2.5-8.3-3.5-12.2h-0.2c-1,3.9-2,8-3.4,12.1l-6.5,19.3L251,160.4z"/>
		<path id="path636" d="M310.1,188.1v-28.3l-21.2-38.4h9.9l9.4,18.4c2.5,5,4.6,9.1,6.6,13.8h0.2c1.8-4.4,4.2-8.7,6.7-13.8l9.6-18.4
			h9.7l-22.3,38.3v28.4L310.1,188.1z"/>
		<path id="path638" d="M375.2,176.6c0,4.2,0.2,8.2,0.7,11.5h-7.8l-0.7-6h-0.3c-2.7,3.8-7.8,7.1-14.6,7.1c-9.7,0-14.6-6.8-14.6-13.8
			c0-11.6,10.3-17.9,28.8-17.8v-1c0-3.9-1.1-11.1-10.9-11c-4.6,0-9.2,1.3-12.6,3.6l-2-5.8c4-2.5,9.8-4.2,15.8-4.2
			c14.6,0,18.2,10,18.2,19.5V176.6z M366.8,163.6c-9.5-0.2-20.3,1.5-20.3,10.8c0,5.7,3.8,8.3,8.1,8.3c6.3,0,10.4-4,11.8-8
			c0.3-1,0.4-2,0.4-2.8V163.6z"/>
		<path id="path640" d="M389.3,155.1c0-5.6-0.1-10.5-0.4-14.9h7.6l0.4,9.5h0.3c2.2-6.4,7.5-10.5,13.4-10.5c0.9,0,1.6,0.1,2.4,0.2
			v8.2c-0.9-0.2-1.8-0.2-3-0.2c-6.1,0-10.5,4.6-11.7,11.1c-0.2,1.2-0.3,2.7-0.3,4.1v25.5h-8.7L389.3,155.1z"/>
		<path id="path642" d="M461.9,117.8v57.9c0,4.3,0.2,9.1,0.4,12.4h-7.7l-0.4-8.3h-0.3c-2.6,5.3-8.3,9.4-16.1,9.4
			c-11.6,0-20.6-9.8-20.6-24.3c-0.1-15.9,9.9-25.6,21.5-25.6c7.4,0,12.3,3.5,14.4,7.2h0.2v-28.6L461.9,117.8L461.9,117.8z
			 M453.3,159.7c0-1.1-0.1-2.6-0.4-3.7c-1.3-5.4-6-10-12.6-10c-9,0-14.4,7.9-14.4,18.4c0,9.7,4.8,17.7,14.2,17.7
			c5.8,0,11.2-4,12.8-10.4c0.3-1.2,0.4-2.4,0.4-3.8V159.7z"/>
	</g>
	<g id="g650">
		<path id="path646" d="M429.9,73.4V79h6.1v3.3h-6.1V95c0,2.9,0.8,4.6,3.2,4.6c1.2,0,1.9-0.1,2.5-0.3l0.2,3.3
			c-0.8,0.3-2.1,0.6-3.8,0.6c-2,0-3.6-0.7-4.6-1.8c-1.2-1.3-1.7-3.4-1.7-6.2V82.3H422V79h3.7v-4.4L429.9,73.4z"/>
		<path id="path648" d="M461.9,90.6c0,8.7-6.1,12.5-11.7,12.5c-6.3,0-11.3-4.7-11.3-12.1c0-7.8,5.2-12.5,11.7-12.5
			C457.3,78.6,461.9,83.5,461.9,90.6z M443.3,90.9c0,5.2,2.9,9.1,7.1,9.1c4.1,0,7.2-3.8,7.2-9.2c0-4-2-9-7.1-9
			C445.5,81.8,443.3,86.5,443.3,90.9z"/>
	</g>
</g>
<rect id="rect893" x="94.7" y="222.3" width="389.1" height="43"/>
<rect id="rect893-5" x="419.5" y="57.9" width="64" height="166.9"/>
<polygon id="rect893-5-2" points="483.6,5.5 483.6,78.1 391.5,79 386.1,62.5 "/>
<rect id="rect22430" x="458.4" y="139.1" class="st7" width="54.4" height="42.1"/>
<rect id="rect22430-6" x="458.4" y="78.1" class="st7" width="54.4" height="42.1"/>
<rect id="rect22430-5" x="107.2" y="220.1" class="st7" width="175.4" height="11.1"/>
<rect id="rect22430-5-9" x="297.7" y="220.6" class="st7" width="121.9" height="11.1"/>
</svg>
